<svg width="20" height="20" viewBox="0 0 20 20" fill="none" xmlns="http://www.w3.org/2000/svg">
<path d="M6.45766 17.2189C6.17657 17.219 5.89821 17.1637 5.63854 17.0561C5.37886 16.9484 5.14297 16.7906 4.94438 16.5917L0.369217 12.0182C-0.123072 11.5258 -0.123072 10.7275 0.369217 10.2351C0.861665 9.7428 1.65992 9.7428 2.15237 10.2351L6.45766 14.5404L17.8476 3.15041C18.3401 2.65812 19.1383 2.65812 19.6308 3.15041C20.1231 3.64285 20.1231 4.44111 19.6308 4.93356L7.97094 16.5917C7.77234 16.7906 7.53645 16.9484 7.27678 17.0561C7.01711 17.1637 6.73875 17.219 6.45766 17.2189Z" fill="currentColor"/>
</svg>
