<svg width="50" height="50" viewBox="0 0 50 50" fill="none" xmlns="http://www.w3.org/2000/svg">
<path d="M39.5833 2.08331H10.4167C7.65501 2.08662 5.00741 3.18515 3.05462 5.13794C1.10184 7.09072 0.00330804 9.73832 0 12.5L0 37.5C0.00330804 40.2616 1.10184 42.9092 3.05462 44.862C5.00741 46.8148 7.65501 47.9133 10.4167 47.9166H39.5833C42.345 47.9133 44.9926 46.8148 46.9454 44.862C48.8982 42.9092 49.9967 40.2616 50 37.5V12.5C49.9967 9.73832 48.8982 7.09072 46.9454 5.13794C44.9926 3.18515 42.345 2.08662 39.5833 2.08331ZM10.4167 6.24998H39.5833C40.8308 6.25243 42.049 6.62814 43.0812 7.32874C44.1133 8.02934 44.9122 9.02279 45.375 10.1812L29.4208 26.1375C28.2467 27.3069 26.6571 27.9635 25 27.9635C23.3429 27.9635 21.7533 27.3069 20.5792 26.1375L4.625 10.1812C5.08781 9.02279 5.88669 8.02934 6.91885 7.32874C7.951 6.62814 9.1692 6.25243 10.4167 6.24998ZM39.5833 43.75H10.4167C8.75906 43.75 7.16935 43.0915 5.99725 41.9194C4.82515 40.7473 4.16667 39.1576 4.16667 37.5V15.625L17.6333 29.0833C19.5888 31.0338 22.238 32.1292 25 32.1292C27.762 32.1292 30.4112 31.0338 32.3667 29.0833L45.8333 15.625V37.5C45.8333 39.1576 45.1749 40.7473 44.0028 41.9194C42.8306 43.0915 41.2409 43.75 39.5833 43.75Z" fill="currentColor"/>
</svg>
