<svg width="28" height="24" viewBox="0 0 28 24" fill="none" xmlns="http://www.w3.org/2000/svg">
<path fill-rule="evenodd" clip-rule="evenodd" d="M26.234 3.8702C25.7439 3.0015 25.0808 2.23611 24.2831 1.61859C23.4855 1.00107 22.5692 0.543762 21.5877 0.273284C19.2436 -0.367751 16.9955 0.124024 15.0867 1.69519C14.5568 2.13593 14.0775 2.63092 13.657 3.17156C13.2361 2.63084 12.7562 2.13585 12.2257 1.69519C10.3169 0.124024 8.06883 -0.367751 5.72468 0.273284C4.7435 0.543948 3.82757 1.00134 3.0302 1.61886C2.23282 2.23637 1.56993 3.00166 1.08009 3.8702C-0.233068 6.21123 -0.350141 8.712 0.731566 11.3029C1.56025 13.2883 3.07518 15.2805 5.23373 17.2246C6.10369 18.0077 7.01885 18.7557 7.90424 19.4794L7.92316 19.4949L7.93773 19.5064C9.18995 20.5289 10.4546 21.5828 11.6772 22.6017L11.6803 22.6042L13.131 23.8114C13.2776 23.9331 13.4641 24 13.657 24C13.8499 24 14.0365 23.9331 14.183 23.8114C14.6654 23.4106 15.1473 23.0091 15.6289 22.6069L15.6344 22.6023C16.8579 21.583 18.1233 20.5288 19.3763 19.5054L19.3909 19.4939L19.4098 19.4784C20.2952 18.7547 21.2103 18.0067 22.0803 17.2235C24.2383 15.2795 25.7538 13.2872 26.5825 11.3018C27.6642 8.712 27.5471 6.21123 26.234 3.8702ZM17.8677 17.5452C18.6443 16.9168 19.4479 16.2665 20.2006 15.5975C22.9786 13.1245 25.8275 9.36162 23.6261 5.4803C23.281 4.8754 22.8139 4.34239 22.2522 3.91228C21.6904 3.48217 21.0451 3.16355 20.3539 2.97496C18.7349 2.53866 17.2383 2.85744 15.9057 3.92667C15.2612 4.45019 14.7173 5.07814 14.2988 5.78196C14.2378 5.89481 14.1456 5.98941 14.0324 6.05544C13.9192 6.12147 13.7893 6.15639 13.6568 6.15639C13.5243 6.15639 13.3944 6.12147 13.2812 6.05544C13.168 5.98941 13.0759 5.89481 13.0149 5.78196C12.5958 5.07901 12.052 4.45175 11.4079 3.92852C10.4615 3.16881 9.43164 2.78711 8.33383 2.78711C7.86906 2.78961 7.40687 2.85344 6.96023 2.97681C6.26909 3.16524 5.62389 3.48365 5.06213 3.91351C4.50038 4.34337 4.03328 4.87612 3.688 5.48077C1.48658 9.36162 4.3355 13.1245 7.11596 15.597C7.87291 16.2711 8.68337 16.9258 9.46684 17.5583L9.47937 17.5684C10.6047 18.4771 11.7386 19.4108 12.835 20.3139L13.6595 20.9926L14.4791 20.3176L14.4845 20.3132C15.5806 19.4105 16.7142 18.477 17.8391 17.5684L17.8516 17.5583L17.8677 17.5452Z" fill="currentColor"/>
</svg>
