<svg width="24" height="24" viewBox="0 0 24 24" fill="none" xmlns="http://www.w3.org/2000/svg">
<path d="M15.2501 18H8.75024C8.33624 18 8.00024 17.664 8.00024 17.25C8.00024 16.836 8.33624 16.5 8.75024 16.5H15.2501C15.6641 16.5 16.0001 16.836 16.0001 17.25C16.0001 17.664 15.6641 18 15.2501 18ZM15.2501 21H8.75024C8.33624 21 8.00024 20.664 8.00024 20.25C8.00024 19.836 8.33624 19.5 8.75024 19.5H15.2501C15.6641 19.5 16.0001 19.836 16.0001 20.25C16.0001 20.664 15.6641 21 15.2501 21Z" fill="currentColor"/>
<path d="M21.2499 6H20.0001V3C20.0001 1.34602 18.654 0 17.0001 0H6.99994C5.34595 0 3.99994 1.34602 3.99994 3V6H2.75006C1.23103 6 0 7.23103 0 8.75006V15.2499C0 16.769 1.23103 18 2.75006 18H3.99994V21C3.99994 22.6569 5.343 24 6.99994 24H17.0001C18.657 24 20.0001 22.6569 20.0001 21V18H21.2499C22.769 18 24 16.769 24 15.2499V8.75006C24 7.23103 22.769 6 21.2499 6ZM6 3C6 2.44903 6.44808 2.00006 6.99994 2.00006H17.0001C17.5519 2.00006 18 2.44903 18 3V6H6V3ZM18 21C18 21.551 17.5519 21.9999 17.0001 21.9999H6.99994C6.44808 21.9999 6 21.551 6 21V15H18V21Z" fill="currentColor"/>
</svg>
