<svg width="50" height="50" viewBox="0 0 50 50" fill="none" xmlns="http://www.w3.org/2000/svg">
<path d="M27.084 2.0833C27.084 1.53077 27.3034 1.00087 27.6942 0.610164C28.0849 0.219464 28.6148 -2.99173e-05 29.1673 -2.99173e-05C34.6908 0.00603591 39.9863 2.20292 43.892 6.10861C47.7977 10.0143 49.9946 15.3098 50.0006 20.8333C50.0006 21.3858 49.7811 21.9157 49.3904 22.3064C48.9997 22.6971 48.4698 22.9166 47.9173 22.9166C47.3648 22.9166 46.8349 22.6971 46.4441 22.3064C46.0534 21.9157 45.834 21.3858 45.834 20.8333C45.829 16.4146 44.0714 12.1782 40.9469 9.05367C37.8224 5.92914 33.586 4.1716 29.1673 4.16664C28.6148 4.16664 28.0849 3.94714 27.6942 3.55644C27.3034 3.16574 27.084 2.63584 27.084 2.0833ZM29.1673 12.5C31.3774 12.5 33.497 13.3779 35.0598 14.9407C36.6226 16.5036 37.5006 18.6232 37.5006 20.8333C37.5006 21.3858 37.7201 21.9157 38.1108 22.3064C38.5015 22.6971 39.0314 22.9166 39.584 22.9166C40.1365 22.9166 40.6664 22.6971 41.0571 22.3064C41.4478 21.9157 41.6673 21.3858 41.6673 20.8333C41.664 17.5191 40.346 14.3416 38.0025 11.9981C35.659 9.65464 32.4815 8.33661 29.1673 8.3333C28.6148 8.3333 28.0849 8.5528 27.6942 8.9435C27.3034 9.3342 27.084 9.8641 27.084 10.4166C27.084 10.9692 27.3034 11.4991 27.6942 11.8898C28.0849 12.2805 28.6148 12.5 29.1673 12.5ZM48.111 34.8729C49.3184 36.0835 49.9963 37.7235 49.9963 39.4333C49.9963 41.1431 49.3184 42.7831 48.111 43.9937L46.2152 46.1791C29.1527 62.5146 -12.3681 21.0041 3.7152 3.88747L6.11104 1.80414C7.32306 0.630548 8.9484 -0.0186777 10.6354 -0.00308233C12.3224 0.012513 13.9355 0.691675 15.1256 1.88747C15.1902 1.95205 19.0506 6.96664 19.0506 6.96664C20.1961 8.17003 20.8338 9.76857 20.831 11.43C20.8283 13.0914 20.1854 14.6878 19.036 15.8875L16.6235 18.9208C17.9586 22.1648 19.9216 25.113 22.3996 27.596C24.8776 30.079 27.8218 32.0479 31.0631 33.3896L34.1152 30.9625C35.315 29.814 36.9112 29.1718 38.5721 29.1695C40.233 29.1672 41.8309 29.8048 43.034 30.95C43.034 30.95 48.0465 34.8083 48.111 34.8729ZM45.2444 37.9021C45.2444 37.9021 40.259 34.0666 40.1944 34.0021C39.7652 33.5765 39.1852 33.3377 38.5808 33.3377C37.9764 33.3377 37.3965 33.5765 36.9673 34.0021C36.911 34.0604 32.709 37.4083 32.709 37.4083C32.4258 37.6337 32.0888 37.7814 31.7311 37.837C31.3735 37.8925 31.0076 37.8539 30.6694 37.725C26.4703 36.1616 22.6563 33.714 19.4857 30.5481C16.3151 27.3821 13.8619 23.5717 12.2923 19.375C12.1531 19.0322 12.1077 18.6585 12.1608 18.2923C12.2139 17.9262 12.3636 17.5808 12.5944 17.2916C12.5944 17.2916 15.9423 13.0875 15.9985 13.0333C16.4241 12.6041 16.6629 12.0242 16.6629 11.4198C16.6629 10.8154 16.4241 10.2354 15.9985 9.80622C15.934 9.74372 12.0985 4.75414 12.0985 4.75414C11.6629 4.36353 11.0944 4.15434 10.5095 4.16944C9.92456 4.18455 9.36759 4.42281 8.95271 4.83539L6.55687 6.91872C-5.1973 21.0521 30.784 55.0375 43.1694 43.3333L45.0673 41.1458C45.512 40.7338 45.7792 40.1651 45.8122 39.5598C45.8453 38.9544 45.6416 38.36 45.2444 37.9021Z" fill="currentColor"/>
</svg>
