<svg width="24" height="24" viewBox="0 0 24 24" fill="none" xmlns="http://www.w3.org/2000/svg">
<path d="M23.7893 6.97895L17.2895 0.229188C17.1857 0.121758 17.0523 0.0477185 16.9063 0.0165398C16.7602 -0.0146389 16.6082 -0.00153938 16.4696 0.0541627C16.3308 0.110161 16.212 0.206325 16.1282 0.330325C16.0445 0.454326 15.9997 0.600511 15.9996 0.750138V4.00015H15.7497C10.3738 4.00015 6 8.37399 6 13.7498V15.2498C6 15.5976 6.24496 15.8877 6.5839 15.9668C6.63902 15.9807 6.69396 15.9867 6.7489 15.9867C7.03196 15.9867 7.30294 15.8207 7.43386 15.5597C8.83987 12.7468 11.6667 10.9998 14.8116 10.9998H15.9996V14.2497C15.9995 14.3992 16.0443 14.5453 16.1281 14.6692C16.2118 14.7931 16.3308 14.8891 16.4696 14.9447C16.7506 15.0597 17.0775 14.9897 17.2895 14.7697L23.7893 8.01991C24.0693 7.72897 24.0693 7.27102 23.7893 6.979V6.97895Z" fill="currentColor"/>
<path d="M20.9993 24.0002H2.99989C1.34597 24.0002 0 22.6544 0 21.0003V7.00087C0 5.34694 1.34597 4.00098 2.99989 4.00098H5.99979C6.55276 4.00098 6.99969 4.44791 6.99969 5.00088C6.99969 5.55384 6.55276 6.00078 5.99979 6.00078H2.99989C2.44787 6.00078 1.9998 6.44884 1.9998 7.00087V21.0003C1.9998 21.5523 2.44787 22.0003 2.99989 22.0003H20.9993C21.5511 22.0003 21.9992 21.5523 21.9992 21.0003V13.0007C21.9992 12.4477 22.4461 12.0006 22.9991 12.0006C23.5522 12.0006 23.9992 12.4477 23.9992 13.0007V21.0003C23.9992 22.6544 22.6532 24.0002 20.9993 24.0002Z" fill="currentColor"/>
</svg>
