<svg width="40" height="40" viewBox="0 0 40 40" fill="none" xmlns="http://www.w3.org/2000/svg">
<g id="Frame" clip-path="url(#clip0_614_1369)">
<g id="Group">
<path id="Vector" d="M27.5 0C20.49 0 15 3.295 15 7.5V11.8117C14.1702 11.7145 13.3355 11.6661 12.5 11.6667C5.49 11.6667 0 14.9617 0 19.1667V32.5C0 36.705 5.49 40 12.5 40C18.1783 40 22.86 37.8383 24.4333 34.7817C25.43 34.9267 26.4567 35 27.5 35C34.51 35 40 31.705 40 27.5V7.5C40 3.295 34.51 0 27.5 0ZM36.6667 20.8333C36.6667 22.8 32.7467 25 27.5 25C26.6467 25 25.81 24.9417 25 24.8283V21.5217C25.8167 21.6167 26.6533 21.6667 27.5 21.6667C31.1567 21.6667 34.4 20.77 36.6667 19.315V20.8333ZM3.33333 24.315C5.6 25.77 8.84333 26.6667 12.5 26.6667C16.1567 26.6667 19.4 25.77 21.6667 24.315V25.8333C21.6667 27.8 17.7467 30 12.5 30C7.25333 30 3.33333 27.8 3.33333 25.8333V24.315ZM36.6667 14.1667C36.6667 16.1333 32.7467 18.3333 27.5 18.3333C26.6083 18.3333 25.7333 18.27 24.89 18.1467C24.5683 16.6683 23.5567 15.34 22.0467 14.275C23.6867 14.7417 25.5333 15 27.5 15C31.1567 15 34.4 14.1033 36.6667 12.6483V14.1667ZM27.5 3.33333C32.7467 3.33333 36.6667 5.53333 36.6667 7.5C36.6667 9.46667 32.7467 11.6667 27.5 11.6667C22.2533 11.6667 18.3333 9.46667 18.3333 7.5C18.3333 5.53333 22.2533 3.33333 27.5 3.33333ZM12.5 15C17.7467 15 21.6667 17.2 21.6667 19.1667C21.6667 21.1333 17.7467 23.3333 12.5 23.3333C7.25333 23.3333 3.33333 21.1333 3.33333 19.1667C3.33333 17.2 7.25333 15 12.5 15ZM12.5 36.6667C7.25333 36.6667 3.33333 34.4667 3.33333 32.5V30.9817C5.6 32.4367 8.84333 33.3333 12.5 33.3333C16.1567 33.3333 19.4 32.4367 21.6667 30.9817V32.5C21.6667 34.4667 17.7467 36.6667 12.5 36.6667ZM27.5 31.6667C26.6467 31.6667 25.81 31.6083 25 31.495V28.1883C25.8167 28.2833 26.6533 28.3333 27.5 28.3333C31.1567 28.3333 34.4 27.4367 36.6667 25.9817V27.5C36.6667 29.4667 32.7467 31.6667 27.5 31.6667Z" fill="white"/>
</g>
</g>
<defs>
<clipPath id="clip0_614_1369">
<rect width="40" height="40" fill="white"/>
</clipPath>
</defs>
</svg>
