<svg width="40" height="40" viewBox="0 0 40 40" fill="none" xmlns="http://www.w3.org/2000/svg">
<g id="Frame" clip-path="url(#clip0_614_1386)">
<g id="Group">
<path id="Vector" d="M19.7733 6.66834C12.8 6.78334 6.925 12.545 6.67666 19.51C6.60033 21.4987 6.97268 23.4791 7.76612 25.3043C8.55955 27.1295 9.7537 28.7526 11.26 30.0533C12.5783 31.1983 13.3333 32.9583 13.3333 35C13.3333 37.7567 15.5767 40 18.3333 40H21.6667C24.4233 40 26.6667 37.7567 26.6667 35V34.375C26.6667 32.765 27.425 31.2117 28.8033 29.9983C30.2259 28.7497 31.3659 27.212 32.147 25.4879C32.9282 23.7638 33.3326 21.8929 33.3333 20C33.3386 18.2298 32.9888 16.4766 32.3046 14.844C31.6204 13.2114 30.6157 11.7325 29.35 10.495C26.7817 7.96834 23.3783 6.58667 19.7733 6.66834ZM23.3333 35C23.3333 35.442 23.1577 35.866 22.8452 36.1785C22.5326 36.4911 22.1087 36.6667 21.6667 36.6667H18.3333C17.4133 36.6667 16.6667 35.92 16.6667 34.885C16.6628 34.3653 16.6199 33.8466 16.5383 33.3333H23.4017C23.3579 33.6789 23.3351 34.0267 23.3333 34.375V35ZM26.6033 27.495C25.7831 28.2123 25.0851 29.0584 24.5367 30H21.6667V23.0267C22.6387 22.684 23.4809 22.049 24.0777 21.2087C24.6745 20.3684 24.9967 19.364 25 18.3333C25 17.8913 24.8244 17.4674 24.5118 17.1548C24.1993 16.8423 23.7754 16.6667 23.3333 16.6667C22.8913 16.6667 22.4674 16.8423 22.1548 17.1548C21.8423 17.4674 21.6667 17.8913 21.6667 18.3333C21.6667 18.7754 21.4911 19.1993 21.1785 19.5119C20.8659 19.8244 20.442 20 20 20C19.558 20 19.134 19.8244 18.8215 19.5119C18.5089 19.1993 18.3333 18.7754 18.3333 18.3333C18.3333 17.8913 18.1577 17.4674 17.8452 17.1548C17.5326 16.8423 17.1087 16.6667 16.6667 16.6667C16.2246 16.6667 15.8007 16.8423 15.4882 17.1548C15.1756 17.4674 15 17.8913 15 18.3333C15 20.5033 16.3983 22.3367 18.3333 23.0267V30H15.4233C14.9119 29.0698 14.2418 28.2361 13.4433 27.5367C12.3142 26.5609 11.4191 25.3435 10.8242 23.9749C10.2293 22.6062 9.94989 21.1213 10.0067 19.63C10.1933 14.4067 14.6 10.0867 19.83 10.0017H20C22.6433 10.0017 25.1283 11.0167 27.0133 12.8733C27.9928 13.8355 28.7633 14.9893 29.2766 16.2626C29.7899 17.536 30.0351 18.9016 29.9968 20.274C29.9585 21.6464 29.6375 22.9962 29.0539 24.239C28.4703 25.4817 27.6366 26.5907 26.605 27.4967L26.6033 27.495ZM27.975 4.12334L30.0333 0.773341C30.1474 0.586377 30.2973 0.423823 30.4744 0.295043C30.6515 0.166262 30.8524 0.0738022 31.0654 0.0229883C31.2784 -0.0278256 31.4994 -0.0359888 31.7155 -0.00103091C31.9317 0.0339269 32.1389 0.111315 32.325 0.226675C32.5116 0.341013 32.6739 0.491059 32.8024 0.668213C32.9309 0.845368 33.0232 1.04615 33.074 1.25904C33.1248 1.47193 33.1331 1.69276 33.0983 1.90885C33.0636 2.12495 32.9866 2.33207 32.8717 2.51834L30.8133 5.86834C30.6993 6.05527 30.5494 6.21782 30.3723 6.34664C30.1953 6.47546 29.9945 6.568 29.7815 6.61896C29.5685 6.66992 29.3476 6.67828 29.1314 6.64356C28.9152 6.60885 28.708 6.53174 28.5217 6.41667C28.335 6.30234 28.1728 6.15229 28.0443 5.97514C27.9158 5.79798 27.8235 5.5972 27.7727 5.38431C27.7219 5.17141 27.7136 4.95059 27.7483 4.73449C27.7831 4.5184 27.8601 4.30961 27.975 4.12334ZM39.0217 11.0367L35.8 12.49C35.5994 12.5889 35.3809 12.6463 35.1577 12.659C34.9344 12.6717 34.7108 12.6392 34.5003 12.5637C34.2898 12.4882 34.0967 12.371 33.9324 12.2193C33.7681 12.0675 33.6361 11.8843 33.5441 11.6804C33.4521 11.4765 33.4021 11.2563 33.3971 11.0327C33.392 10.8091 33.432 10.5868 33.5147 10.379C33.5973 10.1712 33.721 9.98211 33.8782 9.82309C34.0355 9.66407 34.2231 9.53832 34.43 9.45334L37.6517 8.00001C37.851 7.90951 38.0662 7.85927 38.285 7.8522C38.5038 7.84512 38.7218 7.88134 38.9265 7.95878C39.1313 8.03621 39.3187 8.15334 39.478 8.30342C39.6374 8.45351 39.7655 8.6336 39.855 8.83334C39.9453 9.03268 39.9953 9.24788 40.0023 9.4666C40.0093 9.68532 39.973 9.90326 39.8956 10.1079C39.8182 10.3126 39.7011 10.5 39.5512 10.6594C39.4012 10.8188 39.2213 10.947 39.0217 11.0367ZM6.99 2.51667C6.8716 2.33003 6.79152 2.12169 6.75441 1.9038C6.71729 1.68591 6.72389 1.46281 6.77382 1.24749C6.82374 1.03217 6.916 0.82893 7.04521 0.649603C7.17443 0.470276 7.33802 0.318443 7.52647 0.20294C7.71492 0.0874375 7.92447 0.0105733 8.14291 -0.0231785C8.36135 -0.0569303 8.58432 -0.0468955 8.79884 0.0063419C9.01337 0.0595793 9.21516 0.154956 9.39247 0.28692C9.56979 0.418884 9.71908 0.584799 9.83167 0.775008L11.885 4.12668C12.0065 4.31335 12.0894 4.52249 12.1287 4.74173C12.168 4.96097 12.1629 5.18587 12.1139 5.40313C12.0648 5.62039 11.9726 5.82561 11.8429 6.00666C11.7132 6.18771 11.5484 6.34091 11.3585 6.45723C11.1685 6.57354 10.9572 6.6506 10.7369 6.68385C10.5167 6.71709 10.292 6.70586 10.0762 6.65081C9.86038 6.59576 9.65778 6.498 9.48038 6.36332C9.30297 6.22864 9.15436 6.05976 9.04333 5.86667L6.99 2.51501V2.51667ZM6.185 11.7683C6.09065 11.9657 5.9583 12.1426 5.79551 12.2887C5.63272 12.4349 5.4427 12.5475 5.23633 12.6201C5.02996 12.6927 4.81129 12.7239 4.59285 12.7119C4.37441 12.6998 4.16049 12.6448 3.96333 12.55L0.966664 11.115C0.769286 11.0206 0.59244 10.8883 0.446235 10.7256C0.30003 10.5628 0.187332 10.3728 0.114584 10.1665C0.0418353 9.96018 0.0104625 9.74154 0.0222585 9.52309C0.0340545 9.30463 0.0887881 9.09064 0.183331 8.89334C0.27718 8.69551 0.409241 8.5182 0.571907 8.37163C0.734574 8.22505 0.924632 8.11211 1.13113 8.0393C1.33764 7.96649 1.5565 7.93525 1.77513 7.94738C1.99376 7.95952 2.20782 8.01479 2.405 8.11001L5.40166 9.54501C5.59904 9.63937 5.77589 9.77171 5.92209 9.93446C6.0683 10.0972 6.181 10.2872 6.25374 10.4935C6.32649 10.6998 6.35787 10.9185 6.34607 11.1369C6.33427 11.3554 6.27954 11.571 6.185 11.7683Z" fill="white"/>
</g>
</g>
<defs>
<clipPath id="clip0_614_1386">
<rect width="40" height="40" fill="white"/>
</clipPath>
</defs>
</svg>
