<svg width="40" height="40" viewBox="0 0 40 40" fill="none" xmlns="http://www.w3.org/2000/svg">
<g id="Frame" clip-path="url(#clip0_614_1379)">
<g id="Group">
<path id="Vector" d="M28.3333 23.3333C28.3333 23.7754 28.1577 24.1993 27.8452 24.5119C27.5326 24.8244 27.1087 25 26.6667 25H13.3333C12.8913 25 12.4674 24.8244 12.1548 24.5119C11.8423 24.1993 11.6667 23.7754 11.6667 23.3333C11.6667 22.8913 11.8423 22.4674 12.1548 22.1548C12.4674 21.8423 12.8913 21.6667 13.3333 21.6667H26.6667C27.1087 21.6667 27.5326 21.8423 27.8452 22.1548C28.1577 22.4674 28.3333 22.8913 28.3333 23.3333ZM21.6667 28.3333H13.3333C12.8913 28.3333 12.4674 28.5089 12.1548 28.8215C11.8423 29.1341 11.6667 29.558 11.6667 30C11.6667 30.442 11.8423 30.866 12.1548 31.1785C12.4674 31.4911 12.8913 31.6667 13.3333 31.6667H21.6667C22.1087 31.6667 22.5326 31.4911 22.8452 31.1785C23.1577 30.866 23.3333 30.442 23.3333 30C23.3333 29.558 23.1577 29.1341 22.8452 28.8215C22.5326 28.5089 22.1087 28.3333 21.6667 28.3333ZM36.6667 17.475V31.6667C36.664 33.876 35.7852 35.9941 34.223 37.5563C32.6607 39.1185 30.5427 39.9974 28.3333 40H11.6667C9.45735 39.9974 7.33927 39.1185 5.77704 37.5563C4.21481 35.9941 3.33599 33.876 3.33334 31.6667V8.33334C3.33599 6.12402 4.21481 4.00594 5.77704 2.44371C7.33927 0.881478 9.45735 0.00265433 11.6667 7.89688e-06H19.1917C20.7244 -0.00393698 22.2426 0.295987 23.6587 0.88244C25.0748 1.46889 26.3606 2.33024 27.4417 3.41667L33.2483 9.22667C34.3354 10.3071 35.1973 11.5924 35.7841 13.0083C36.3708 14.4242 36.6708 15.9424 36.6667 17.475ZM25.085 5.77334C24.5605 5.26528 23.9716 4.82821 23.3333 4.47334V11.6667C23.3333 12.1087 23.5089 12.5326 23.8215 12.8452C24.1341 13.1577 24.558 13.3333 25 13.3333H32.1933C31.8383 12.6953 31.4006 12.1069 30.8917 11.5833L25.085 5.77334ZM33.3333 17.475C33.3333 17.2 33.28 16.9367 33.255 16.6667H25C23.6739 16.6667 22.4022 16.1399 21.4645 15.2022C20.5268 14.2645 20 12.9928 20 11.6667V3.41167C19.73 3.38667 19.465 3.33334 19.1917 3.33334H11.6667C10.3406 3.33334 9.06882 3.86013 8.13114 4.79781C7.19346 5.73549 6.66668 7.00726 6.66668 8.33334V31.6667C6.66668 32.9928 7.19346 34.2645 8.13114 35.2022C9.06882 36.1399 10.3406 36.6667 11.6667 36.6667H28.3333C29.6594 36.6667 30.9312 36.1399 31.8689 35.2022C32.8066 34.2645 33.3333 32.9928 33.3333 31.6667V17.475Z" fill="white"/>
</g>
</g>
<defs>
<clipPath id="clip0_614_1379">
<rect width="40" height="40" fill="white"/>
</clipPath>
</defs>
</svg>
