<svg width="40" height="40" viewBox="0 0 40 40" fill="none" xmlns="http://www.w3.org/2000/svg">
<g id="Frame" clip-path="url(#clip0_503_2497)">
<g id="Group">
<path id="Vector" d="M19.9997 39.9999C18.6774 40.0002 17.3707 39.7144 16.1693 39.1621C14.9679 38.6097 13.9002 37.8038 13.0397 36.7999C11.7214 36.9017 10.3968 36.7168 9.15674 36.2579C7.91672 35.799 6.7908 35.077 5.85638 34.1415C4.9212 33.2069 4.19938 32.081 3.74051 30.841C3.28164 29.601 3.09658 28.2764 3.19805 26.9582C1.17805 25.2265 -0.00195312 22.6949 -0.00195312 19.9999C-0.00195312 17.3049 1.17805 14.7732 3.19805 13.0415C3.09647 11.7233 3.28148 10.3987 3.74035 9.15868C4.19923 7.9187 4.92111 6.79275 5.85638 5.8582C6.79262 4.92528 7.91882 4.20497 9.15836 3.74625C10.3979 3.28753 11.7217 3.10118 13.0397 3.19987C13.9 2.19533 14.9675 1.38892 16.1689 0.836013C17.3703 0.283111 18.6772 -0.00317383 19.9997 -0.00317383C21.3223 -0.00317383 22.6291 0.283111 23.8305 0.836013C25.032 1.38892 26.0995 2.19533 26.9597 3.19987C28.2782 3.09777 29.6031 3.2823 30.8435 3.74078C32.0838 4.19927 33.2103 4.92083 34.1453 5.85591C35.0804 6.79099 35.802 7.91741 36.2605 9.15778C36.7189 10.3982 36.9035 11.7231 36.8014 13.0415C38.8214 14.7732 40.0014 17.3049 40.0014 19.9999C40.0014 22.6949 38.8214 25.2265 36.8014 26.9582C36.903 28.2765 36.718 29.6011 36.2591 30.8411C35.8002 32.081 35.0783 33.207 34.143 34.1415C33.2088 35.0773 32.0829 35.7994 30.8429 36.2584C29.6028 36.7173 28.278 36.902 26.9597 36.7999C26.0992 37.8038 25.0316 38.6097 23.8302 39.1621C22.6287 39.7144 21.322 40.0002 19.9997 39.9999ZM14.543 33.1749L15.1597 34.0899C15.6934 34.8832 16.414 35.5332 17.258 35.9826C18.102 36.4321 19.0435 36.6671 19.9997 36.6671C20.9559 36.6671 21.8974 36.4321 22.7414 35.9826C23.5854 35.5332 24.306 34.8832 24.8397 34.0899L25.4564 33.1749L26.538 33.3849C27.4764 33.5693 28.4458 33.52 29.3607 33.2414C30.2755 32.9628 31.1078 32.4634 31.7841 31.7872C32.4604 31.1111 32.96 30.2789 33.2389 29.3641C33.5177 28.4493 33.5672 27.48 33.383 26.5415L33.1714 25.4582L34.088 24.8415C34.8814 24.3078 35.5314 23.5872 35.9808 22.7432C36.4302 21.8992 36.6653 20.9577 36.6653 20.0015C36.6653 19.0453 36.4302 18.1038 35.9808 17.2598C35.5314 16.4158 34.8814 15.6953 34.088 15.1615L33.1714 14.5449L33.383 13.4615C33.5672 12.5231 33.5177 11.5538 33.2389 10.639C32.96 9.72417 32.4604 8.89202 31.7841 8.21586C31.1078 7.53971 30.2755 7.04031 29.3607 6.7617C28.4458 6.48308 27.4764 6.4338 26.538 6.6182L25.4564 6.8282L24.8397 5.9132C24.306 5.11984 23.5854 4.46984 22.7414 4.02043C21.8974 3.57102 20.9559 3.33597 19.9997 3.33597C19.0435 3.33597 18.102 3.57102 17.258 4.02043C16.414 4.46984 15.6934 5.11984 15.1597 5.9132L14.543 6.8282L13.4614 6.6182C12.5231 6.43465 11.5541 6.48454 10.6397 6.76346C9.72519 7.04238 8.8933 7.54178 8.21719 8.21773C7.54107 8.89368 7.04146 9.72545 6.76232 10.6398C6.48318 11.5542 6.43306 12.5232 6.61638 13.4615L6.82805 14.5449L5.91138 15.1615C5.11802 15.6953 4.46802 16.4158 4.01861 17.2598C3.5692 18.1038 3.33415 19.0453 3.33415 20.0015C3.33415 20.9577 3.5692 21.8992 4.01861 22.7432C4.46802 23.5872 5.11802 24.3078 5.91138 24.8415L6.82805 25.4582L6.61638 26.5415C6.43221 27.48 6.48172 28.4493 6.76056 29.3641C7.0394 30.2789 7.539 31.1111 8.21532 31.7872C8.89164 32.4634 9.72391 32.9628 10.6388 33.2414C11.5536 33.52 12.523 33.5693 13.4614 33.3849L14.543 33.1749ZM19.8497 25.6999L29.5047 16.1882L27.1647 13.8132L17.483 23.3149L12.828 18.8032L10.5064 21.1982L15.143 25.6915C15.7947 26.3432 16.648 26.6665 17.503 26.6665C18.358 26.6665 19.2064 26.3449 19.8497 25.6999Z" fill="white"/>
</g>
</g>
<defs>
<clipPath id="clip0_503_2497">
<rect width="40" height="40" fill="white"/>
</clipPath>
</defs>
</svg>
