<svg width="40" height="40" viewBox="0 0 40 40" fill="none" xmlns="http://www.w3.org/2000/svg">
<g id="Frame" clip-path="url(#clip0_430_3088)">
<g id="Group">
<path id="Vector" d="M12.9153 34.4377C12.3531 34.438 11.7964 34.3273 11.2771 34.1121C10.7577 33.8968 10.2859 33.5812 9.88875 33.1834L0.738435 24.0364C-0.246145 23.0515 -0.246145 21.455 0.738435 20.4701C1.72333 19.4856 3.31984 19.4856 4.30474 20.4701L12.9153 29.0807L35.6953 6.30077C36.6802 5.31619 38.2767 5.31619 39.2616 6.30077C40.2461 7.28567 40.2461 8.88218 39.2616 9.86707L15.9419 33.1834C15.5447 33.5812 15.0729 33.8968 14.5536 34.1121C14.0342 34.3273 13.4775 34.438 12.9153 34.4377Z" fill="white"/>
</g>
</g>
<defs>
<clipPath id="clip0_430_3088">
<rect width="40" height="40" fill="white"/>
</clipPath>
</defs>
</svg>
