<svg width="40" height="40" viewBox="0 0 40 40" fill="none" xmlns="http://www.w3.org/2000/svg">
<g id="Frame" clip-path="url(#clip0_489_2022)">
<g id="Group">
<path id="Vector" d="M19.773 6.66833C12.7997 6.78333 6.92469 12.545 6.67636 19.51C6.60002 21.4987 6.97238 23.4791 7.76581 25.3043C8.55924 27.1295 9.75339 28.7526 11.2597 30.0533C12.578 31.1983 13.333 32.9583 13.333 35C13.333 37.7567 15.5764 40 18.333 40H21.6664C24.423 40 26.6664 37.7567 26.6664 35V34.375C26.6664 32.765 27.4247 31.2117 28.803 29.9983C30.2256 28.7497 31.3655 27.212 32.1467 25.4879C32.9279 23.7638 33.3323 21.8928 33.333 20C33.3383 18.2298 32.9885 16.4766 32.3043 14.844C31.6201 13.2114 30.6154 11.7325 29.3497 10.495C26.7814 7.96833 23.378 6.58667 19.773 6.66833ZM23.333 35C23.333 35.442 23.1574 35.866 22.8449 36.1785C22.5323 36.4911 22.1084 36.6667 21.6664 36.6667H18.333C17.413 36.6667 16.6664 35.92 16.6664 34.885C16.6625 34.3653 16.6196 33.8466 16.538 33.3333H23.4014C23.3576 33.6789 23.3348 34.0267 23.333 34.375V35ZM26.603 27.495C25.7828 28.2123 25.0848 29.0584 24.5364 30H21.6664V23.0267C22.6384 22.684 23.4806 22.049 24.0774 21.2087C24.6742 20.3684 24.9964 19.364 24.9997 18.3333C24.9997 17.8913 24.8241 17.4674 24.5115 17.1548C24.199 16.8423 23.7751 16.6667 23.333 16.6667C22.891 16.6667 22.4671 16.8423 22.1545 17.1548C21.842 17.4674 21.6664 17.8913 21.6664 18.3333C21.6664 18.7754 21.4908 19.1993 21.1782 19.5118C20.8656 19.8244 20.4417 20 19.9997 20C19.5577 20 19.1337 19.8244 18.8212 19.5118C18.5086 19.1993 18.333 18.7754 18.333 18.3333C18.333 17.8913 18.1574 17.4674 17.8449 17.1548C17.5323 16.8423 17.1084 16.6667 16.6664 16.6667C16.2243 16.6667 15.8004 16.8423 15.4878 17.1548C15.1753 17.4674 14.9997 17.8913 14.9997 18.3333C14.9997 20.5033 16.398 22.3367 18.333 23.0267V30H15.423C14.9116 29.0698 14.2415 28.2361 13.443 27.5367C12.3139 26.5608 11.4188 25.3435 10.8239 23.9749C10.229 22.6062 9.94959 21.1213 10.0064 19.63C10.193 14.4067 14.5997 10.0867 19.8297 10.0017H19.9997C22.643 10.0017 25.128 11.0167 27.013 12.8733C27.9925 13.8355 28.763 14.9893 29.2763 16.2626C29.7896 17.536 30.0348 18.9016 29.9965 20.274C29.9582 21.6464 29.6372 22.9962 29.0536 24.2389C28.47 25.4817 27.6363 26.5907 26.6047 27.4967L26.603 27.495ZM27.9747 4.12333L30.033 0.773334C30.1471 0.586369 30.2969 0.423815 30.4741 0.295035C30.6512 0.166255 30.8521 0.0737945 31.0651 0.0229806C31.2781 -0.0278333 31.4991 -0.0359964 31.7152 -0.00103854C31.9314 0.0339193 32.1385 0.111307 32.3247 0.226667C32.5113 0.341005 32.6735 0.491052 32.8021 0.668206C32.9306 0.84536 33.0229 1.04614 33.0737 1.25903C33.1245 1.47193 33.1327 1.69275 33.098 1.90885C33.0633 2.12494 32.9863 2.33206 32.8714 2.51833L30.813 5.86833C30.699 6.05527 30.5491 6.21781 30.372 6.34663C30.195 6.47545 29.9942 6.568 29.7812 6.61895C29.5682 6.66991 29.3473 6.67827 29.1311 6.64356C28.9149 6.60884 28.7077 6.53173 28.5214 6.41667C28.3347 6.30233 28.1725 6.15228 28.044 5.97513C27.9155 5.79797 27.8231 5.5972 27.7724 5.3843C27.7216 5.17141 27.7133 4.95058 27.748 4.73449C27.7827 4.51839 27.8598 4.3096 27.9747 4.12333ZM39.0214 11.0367L35.7997 12.49C35.5991 12.5889 35.3806 12.6463 35.1573 12.659C34.9341 12.6716 34.7105 12.6392 34.5 12.5637C34.2895 12.4881 34.0964 12.371 33.9321 12.2193C33.7678 12.0675 33.6358 11.8842 33.5438 11.6804C33.4518 11.4765 33.4018 11.2562 33.3968 11.0327C33.3917 10.8091 33.4317 10.5868 33.5144 10.379C33.597 10.1711 33.7207 9.9821 33.8779 9.82308C34.0352 9.66406 34.2228 9.53831 34.4297 9.45333L37.6514 8C37.8507 7.9095 38.0659 7.85927 38.2847 7.85219C38.5035 7.84512 38.7215 7.88134 38.9262 7.95877C39.131 8.03621 39.3184 8.15333 39.4777 8.30342C39.6371 8.4535 39.7652 8.63359 39.8547 8.83333C39.945 9.03268 39.995 9.24787 40.002 9.46659C40.009 9.68531 39.9727 9.90326 39.8953 10.1079C39.8179 10.3126 39.7008 10.5 39.5509 10.6594C39.4009 10.8187 39.221 10.947 39.0214 11.0367ZM6.98969 2.51667C6.8713 2.33002 6.79122 2.12168 6.7541 1.90379C6.71699 1.6859 6.72359 1.4628 6.77351 1.24748C6.82343 1.03216 6.91569 0.828922 7.04491 0.649595C7.17412 0.470269 7.33772 0.318435 7.52617 0.202932C7.71462 0.0874298 7.92416 0.0105656 8.1426 -0.0231861C8.36104 -0.0569379 8.58401 -0.0469031 8.79854 0.00633427C9.01306 0.0595716 9.21485 0.154948 9.39217 0.286912C9.56948 0.418876 9.71878 0.584791 9.83136 0.775L11.8847 4.12667C12.0062 4.31334 12.0891 4.52248 12.1284 4.74172C12.1677 4.96096 12.1626 5.18586 12.1135 5.40312C12.0645 5.62038 11.9723 5.8256 11.8426 6.00665C11.7128 6.1877 11.5481 6.34091 11.3582 6.45722C11.1682 6.57353 10.9569 6.65059 10.7366 6.68384C10.5164 6.71709 10.2917 6.70585 10.0759 6.6508C9.86008 6.59575 9.65748 6.49799 9.48007 6.36331C9.30267 6.22863 9.15406 6.05976 9.04303 5.86667L6.98969 2.515V2.51667ZM6.18469 11.7683C6.09035 11.9657 5.95799 12.1426 5.79521 12.2887C5.63242 12.4349 5.4424 12.5475 5.23603 12.6201C5.02965 12.6927 4.81099 12.7239 4.59255 12.7118C4.3741 12.6998 4.16018 12.6448 3.96303 12.55L0.966359 11.115C0.768981 11.0206 0.592135 10.8883 0.44593 10.7255C0.299725 10.5628 0.187027 10.3728 0.114279 10.1665C0.0415301 9.96018 0.0101573 9.74154 0.0219533 9.52308C0.0337493 9.30462 0.0884829 9.09063 0.183025 8.89333C0.276875 8.6955 0.408936 8.51819 0.571602 8.37162C0.734269 8.22504 0.924326 8.1121 1.13083 8.03929C1.33733 7.96648 1.5562 7.93524 1.77483 7.94738C1.99345 7.95951 2.20752 8.01478 2.40469 8.11L5.40136 9.545C5.59874 9.63937 5.77558 9.77171 5.92179 9.93445C6.06799 10.0972 6.18069 10.2872 6.25344 10.4935C6.32619 10.6998 6.35756 10.9185 6.34576 11.1369C6.33397 11.3554 6.27924 11.571 6.18469 11.7683Z" fill="white"/>
</g>
</g>
<defs>
<clipPath id="clip0_489_2022">
<rect width="40" height="40" fill="white"/>
</clipPath>
</defs>
</svg>
