<svg width="40" height="40" viewBox="0 0 40 40" fill="none" xmlns="http://www.w3.org/2000/svg">
<g id="Frame">
<g id="Group">
<path id="Vector" d="M35.0005 20.7067V18.3333C35.0005 14.3551 33.4201 10.5398 30.6071 7.72673C27.794 4.91368 23.9787 3.33333 20.0005 3.33333C16.0222 3.33333 12.2069 4.91368 9.39389 7.72673C6.58084 10.5398 5.00049 14.3551 5.00049 18.3333V20.7067C3.25242 21.4764 1.82182 22.8233 0.94819 24.5218C0.0745584 26.2203 -0.189078 28.1674 0.201417 30.0371C0.591911 31.9068 1.61283 33.5856 3.09327 34.7924C4.57371 35.9993 6.4238 36.661 8.33382 36.6667C9.21788 36.6667 10.0657 36.3155 10.6908 35.6904C11.316 35.0652 11.6672 34.2174 11.6672 33.3333V23.3333C11.6672 22.4493 11.316 21.6014 10.6908 20.9763C10.0657 20.3512 9.21788 20 8.33382 20V18.3333C8.33382 15.2391 9.56298 12.2717 11.7509 10.0838C13.9388 7.89583 16.9063 6.66667 20.0005 6.66667C23.0947 6.66667 26.0621 7.89583 28.2501 10.0838C30.438 12.2717 31.6672 15.2391 31.6672 18.3333V20C30.7831 20 29.9353 20.3512 29.3101 20.9763C28.685 21.6014 28.3338 22.4493 28.3338 23.3333V33.3333C28.3338 34.2174 28.685 35.0652 29.3101 35.6904C29.9353 36.3155 30.7831 36.6667 31.6672 36.6667C33.5772 36.661 35.4273 35.9993 36.9077 34.7924C38.3881 33.5856 39.4091 31.9068 39.7996 30.0371C40.1901 28.1674 39.9264 26.2203 39.0528 24.5218C38.1792 22.8233 36.7486 21.4764 35.0005 20.7067ZM8.33382 33.3333C7.00774 33.3333 5.73597 32.8065 4.79829 31.8689C3.86061 30.9312 3.33382 29.6594 3.33382 28.3333C3.33382 27.0072 3.86061 25.7355 4.79829 24.7978C5.73597 23.8601 7.00774 23.3333 8.33382 23.3333V33.3333ZM31.6672 33.3333V23.3333C32.9932 23.3333 34.265 23.8601 35.2027 24.7978C36.1404 25.7355 36.6672 27.0072 36.6672 28.3333C36.6672 29.6594 36.1404 30.9312 35.2027 31.8689C34.265 32.8065 32.9932 33.3333 31.6672 33.3333Z" fill="white"/>
</g>
</g>
</svg>
