<svg width="40" height="40" viewBox="0 0 40 40" fill="none" xmlns="http://www.w3.org/2000/svg">
<g id="Frame" clip-path="url(#clip0_512_1932)">
<g id="Group">
<path id="Vector" d="M30.0006 14.1667C30.0006 15.2717 29.5616 16.3315 28.7802 17.1129C27.9988 17.8943 26.939 18.3333 25.8339 18.3333C24.7289 18.3333 23.6691 17.8943 22.8877 17.1129C22.1063 16.3315 21.6673 15.2717 21.6673 14.1667C21.6673 13.0616 22.1063 12.0018 22.8877 11.2204C23.6691 10.439 24.7289 10 25.8339 10C26.939 10 27.9988 10.439 28.7802 11.2204C29.5616 12.0018 30.0006 13.0616 30.0006 14.1667ZM29.9906 25.61C29.899 28.2581 29.2379 30.8554 28.0523 33.225C26.9598 35.291 25.3195 37.0161 23.3111 38.2112C21.3028 39.4063 19.0041 40.0252 16.6673 40H15.0006V30.8333C14.9931 29.2885 14.3762 27.8091 13.2838 26.7168C12.1915 25.6244 10.7121 25.0074 9.16727 25H0.000598963V23.3333C-0.0246316 20.9965 0.594256 18.6978 1.78937 16.6895C2.98448 14.6811 4.70964 13.0408 6.7756 11.9483C9.14521 10.7627 11.7425 10.1015 14.3906 10.01C16.8187 6.87373 19.9369 4.33922 23.5031 2.60321C27.0693 0.86721 30.9877 -0.0235794 34.9539 -1.63694e-06C35.6139 -0.004172 36.2682 0.12197 36.8794 0.371191C37.4905 0.620413 38.0464 0.987812 38.5153 1.45232C38.9841 1.91684 39.3566 2.46932 39.6115 3.07811C39.8664 3.6869 39.9986 4.34001 40.0006 5C40.0288 8.97369 39.1404 12.9004 37.4043 16.4749C35.6682 20.0494 33.1313 23.1754 29.9906 25.61ZM3.47393 21.6667H7.24393C8.48167 18.91 9.93566 16.2556 11.5923 13.7283C10.4416 13.996 9.32666 14.3988 8.2706 14.9283C7.0005 15.599 5.9051 16.5578 5.07215 17.7279C4.23921 18.8981 3.69185 20.247 3.47393 21.6667ZM26.2723 28.4083C23.745 30.0649 21.0906 31.5189 18.3339 32.7567V36.5267C19.7536 36.3087 21.1025 35.7614 22.2727 34.9284C23.4428 34.0955 24.4016 33.0001 25.0723 31.73C25.6018 30.6739 26.0046 29.559 26.2723 28.4083ZM36.6673 4.95333C36.6551 4.51944 36.4742 4.10741 36.1629 3.80487C35.8517 3.50234 35.4347 3.33316 35.0006 3.33333C26.4006 3.57833 20.5839 6.87333 14.9706 14.7033C13.4042 16.9587 12.0267 19.3395 10.8523 21.8217C12.6721 22.1606 14.3467 23.0426 15.6557 24.3516C16.9647 25.6605 17.8467 27.3351 18.1856 29.155C20.6677 27.9805 23.0486 26.6031 25.3039 25.0367C33.1273 19.4167 36.4223 13.6 36.6673 4.95333ZM10.2039 29.7983C11.1352 30.7392 11.6576 32.0095 11.6576 33.3333C11.6576 34.6571 11.1352 35.9275 10.2039 36.8683C8.69227 38.3783 4.16727 39.31 2.2906 39.6417L-0.0527344 40.0533L0.358932 37.71C0.692266 35.8333 1.62227 31.3083 3.13227 29.7967C4.08518 28.8878 5.35157 28.3808 6.66843 28.3811C7.9853 28.3815 9.25145 28.889 10.2039 29.7983ZM8.33393 33.3333C8.33453 33.1144 8.29167 32.8975 8.20784 32.6952C8.12402 32.493 8.00089 32.3093 7.8456 32.155C7.53305 31.8425 7.10921 31.667 6.66727 31.667C6.22533 31.667 5.80148 31.8425 5.48893 32.155C4.8535 33.3021 4.40722 34.5441 4.16727 35.8333C5.45694 35.5924 6.69947 35.1455 7.84727 34.51C8.00206 34.3557 8.12476 34.1723 8.20829 33.9703C8.29182 33.7684 8.33452 33.5519 8.33393 33.3333Z" fill="white"/>
</g>
</g>
<defs>
<clipPath id="clip0_512_1932">
<rect width="40" height="40" fill="white"/>
</clipPath>
</defs>
</svg>
