<svg width="40" height="40" viewBox="0 0 40 40" fill="none" xmlns="http://www.w3.org/2000/svg">
<g id="Frame" clip-path="url(#clip0_462_5030)">
<g id="Group">
<path id="Vector" d="M20 20C21.9778 20 23.9112 19.4135 25.5557 18.3147C27.2002 17.2159 28.4819 15.6541 29.2388 13.8268C29.9957 11.9996 30.1937 9.9889 29.8079 8.04909C29.422 6.10928 28.4696 4.32745 27.0711 2.92893C25.6725 1.5304 23.8907 0.577996 21.9509 0.192144C20.0111 -0.193708 18.0004 0.00432523 16.1732 0.761202C14.3459 1.51808 12.7841 2.7998 11.6853 4.44429C10.5865 6.08879 10 8.02218 10 10C10.0026 12.6514 11.0571 15.1934 12.9319 17.0681C14.8066 18.9429 17.3486 19.9974 20 20ZM20 3.33333C21.3185 3.33333 22.6075 3.72432 23.7038 4.45687C24.8001 5.18941 25.6546 6.2306 26.1592 7.44877C26.6638 8.66695 26.7958 10.0074 26.5386 11.3006C26.2813 12.5938 25.6464 13.7817 24.714 14.714C23.7817 15.6464 22.5938 16.2813 21.3006 16.5386C20.0074 16.7958 18.667 16.6638 17.4488 16.1592C16.2306 15.6546 15.1894 14.8001 14.4569 13.7038C13.7243 12.6075 13.3333 11.3185 13.3333 10C13.3333 8.23189 14.0357 6.53619 15.286 5.28595C16.5362 4.03571 18.2319 3.33333 20 3.33333ZM20 23.3333C16.0231 23.3377 12.2104 24.9195 9.39827 27.7316C6.58618 30.5437 5.00441 34.3564 5 38.3333C5 38.7754 5.17559 39.1993 5.48816 39.5118C5.80072 39.8244 6.22464 40 6.66667 40C7.10869 40 7.53262 39.8244 7.84518 39.5118C8.15774 39.1993 8.33333 38.7754 8.33333 38.3333C8.33333 35.2391 9.5625 32.2717 11.7504 30.0838C13.9383 27.8958 16.9058 26.6667 20 26.6667C23.0942 26.6667 26.0617 27.8958 28.2496 30.0838C30.4375 32.2717 31.6667 35.2391 31.6667 38.3333C31.6667 38.7754 31.8423 39.1993 32.1548 39.5118C32.4674 39.8244 32.8913 40 33.3333 40C33.7754 40 34.1993 39.8244 34.5118 39.5118C34.8244 39.1993 35 38.7754 35 38.3333C34.9956 34.3564 33.4138 30.5437 30.6017 27.7316C27.7896 24.9195 23.9769 23.3377 20 23.3333Z" fill="white"/>
</g>
</g>
<defs>
<clipPath id="clip0_462_5030">
<rect width="40" height="40" fill="white"/>
</clipPath>
</defs>
</svg>
