<svg width="40" height="40" viewBox="0 0 40 40" fill="none" xmlns="http://www.w3.org/2000/svg">
<g id="Frame">
<g id="Group">
<path id="Vector" d="M34.9985 20.7067V18.3333C34.9985 14.3551 33.4182 10.5398 30.6051 7.72673C27.7921 4.91369 23.9768 3.33334 19.9985 3.33334C16.0203 3.33334 12.205 4.91369 9.39193 7.72673C6.57889 10.5398 4.99853 14.3551 4.99853 18.3333V20.7067C3.25047 21.4764 1.81987 22.8233 0.946237 24.5218C0.0726053 26.2203 -0.191031 28.1674 0.199463 30.0371C0.589958 31.9068 1.61088 33.5856 3.09132 34.7924C4.57176 35.9993 6.42185 36.661 8.33187 36.6667C9.21592 36.6667 10.0638 36.3155 10.6889 35.6904C11.314 35.0652 11.6652 34.2174 11.6652 33.3333V23.3333C11.6652 22.4493 11.314 21.6014 10.6889 20.9763C10.0638 20.3512 9.21592 20 8.33187 20V18.3333C8.33187 15.2391 9.56103 12.2717 11.749 10.0838C13.9369 7.89583 16.9043 6.66667 19.9985 6.66667C23.0927 6.66667 26.0602 7.89583 28.2481 10.0838C30.436 12.2717 31.6652 15.2391 31.6652 18.3333V20C30.7811 20 29.9333 20.3512 29.3082 20.9763C28.6831 21.6014 28.3319 22.4493 28.3319 23.3333V33.3333C28.3319 34.2174 28.6831 35.0652 29.3082 35.6904C29.9333 36.3155 30.7811 36.6667 31.6652 36.6667C33.5752 36.661 35.4253 35.9993 36.9058 34.7924C38.3862 33.5856 39.4071 31.9068 39.7976 30.0371C40.1881 28.1674 39.9245 26.2203 39.0508 24.5218C38.1772 22.8233 36.7466 21.4764 34.9985 20.7067ZM8.33187 33.3333C7.00578 33.3333 5.73402 32.8066 4.79633 31.8689C3.85865 30.9312 3.33187 29.6594 3.33187 28.3333C3.33187 27.0073 3.85865 25.7355 4.79633 24.7978C5.73402 23.8601 7.00578 23.3333 8.33187 23.3333V33.3333ZM31.6652 33.3333V23.3333C32.9913 23.3333 34.2631 23.8601 35.2007 24.7978C36.1384 25.7355 36.6652 27.0073 36.6652 28.3333C36.6652 29.6594 36.1384 30.9312 35.2007 31.8689C34.2631 32.8066 32.9913 33.3333 31.6652 33.3333Z" fill="white"/>
</g>
</g>
</svg>
