<svg width="40" height="40" viewBox="0 0 40 40" fill="none" xmlns="http://www.w3.org/2000/svg">
<g id="Frame" clip-path="url(#clip0_462_5024)">
<g id="Group">
<path id="Vector" d="M28.332 23.3333C28.332 23.7754 28.1564 24.1993 27.8439 24.5118C27.5313 24.8244 27.1074 25 26.6654 25H13.332C12.89 25 12.4661 24.8244 12.1535 24.5118C11.841 24.1993 11.6654 23.7754 11.6654 23.3333C11.6654 22.8913 11.841 22.4674 12.1535 22.1548C12.4661 21.8423 12.89 21.6667 13.332 21.6667H26.6654C27.1074 21.6667 27.5313 21.8423 27.8439 22.1548C28.1564 22.4674 28.332 22.8913 28.332 23.3333ZM21.6654 28.3333H13.332C12.89 28.3333 12.4661 28.5089 12.1535 28.8215C11.841 29.134 11.6654 29.558 11.6654 30C11.6654 30.442 11.841 30.866 12.1535 31.1785C12.4661 31.4911 12.89 31.6667 13.332 31.6667H21.6654C22.1074 31.6667 22.5313 31.4911 22.8439 31.1785C23.1564 30.866 23.332 30.442 23.332 30C23.332 29.558 23.1564 29.134 22.8439 28.8215C22.5313 28.5089 22.1074 28.3333 21.6654 28.3333ZM36.6654 17.475V31.6667C36.6627 33.876 35.7839 35.9941 34.2217 37.5563C32.6594 39.1185 30.5414 39.9974 28.332 40H11.6654C9.45604 39.9974 7.33796 39.1185 5.77573 37.5563C4.2135 35.9941 3.33468 33.876 3.33203 31.6667V8.33333C3.33468 6.12401 4.2135 4.00593 5.77573 2.4437C7.33796 0.88147 9.45604 0.0026467 11.6654 2.67486e-07H19.1904C20.7231 -0.00394461 22.2413 0.29598 23.6574 0.882432C25.0735 1.46888 26.3592 2.33023 27.4404 3.41667L33.247 9.22667C34.3341 10.3071 35.196 11.5924 35.7827 13.0083C36.3695 14.4242 36.6695 15.9424 36.6654 17.475ZM25.0837 5.77333C24.5592 5.26527 23.9703 4.82821 23.332 4.47333V11.6667C23.332 12.1087 23.5076 12.5326 23.8202 12.8452C24.1327 13.1577 24.5567 13.3333 24.9987 13.3333H32.192C31.837 12.6953 31.3993 12.1069 30.8904 11.5833L25.0837 5.77333ZM33.332 17.475C33.332 17.2 33.2787 16.9367 33.2537 16.6667H24.9987C23.6726 16.6667 22.4008 16.1399 21.4632 15.2022C20.5255 14.2645 19.9987 12.9927 19.9987 11.6667V3.41167C19.7287 3.38667 19.4637 3.33333 19.1904 3.33333H11.6654C10.3393 3.33333 9.06751 3.86012 8.12983 4.7978C7.19215 5.73548 6.66536 7.00725 6.66536 8.33333V31.6667C6.66536 32.9927 7.19215 34.2645 8.12983 35.2022C9.06751 36.1399 10.3393 36.6667 11.6654 36.6667H28.332C29.6581 36.6667 30.9299 36.1399 31.8676 35.2022C32.8052 34.2645 33.332 32.9927 33.332 31.6667V17.475Z" fill="white"/>
</g>
</g>
<defs>
<clipPath id="clip0_462_5024">
<rect width="40" height="40" fill="white"/>
</clipPath>
</defs>
</svg>
