<svg width="40" height="40" viewBox="0 0 40 40" fill="none" xmlns="http://www.w3.org/2000/svg">
<g id="Frame" clip-path="url(#clip0_462_5021)">
<g id="Group">
<path id="Vector" d="M39.5103 37.155L29.562 27.2067C32.273 23.891 33.606 19.6602 33.2851 15.3893C32.9642 11.1184 31.014 7.13422 27.838 4.26087C24.6619 1.38752 20.503 -0.155177 16.2214 -0.0481237C11.9398 0.0589293 7.86317 1.80754 4.83468 4.83602C1.8062 7.86451 0.0575865 11.9412 -0.0494665 16.2227C-0.15652 20.5043 1.38618 24.6633 4.25953 27.8393C7.13288 31.0154 11.117 32.9655 15.3879 33.2864C19.6588 33.6073 23.8897 32.2744 27.2053 29.5633L37.1537 39.5117C37.468 39.8153 37.889 39.9833 38.326 39.9795C38.763 39.9757 39.181 39.8004 39.49 39.4914C39.799 39.1824 39.9743 38.7643 39.9781 38.3273C39.9819 37.8903 39.8139 37.4693 39.5103 37.155ZM16.6653 30C14.0282 30 11.4504 29.218 9.25772 27.7529C7.06507 26.2878 5.3561 24.2055 4.34693 21.7691C3.33776 19.3328 3.07372 16.6519 3.58819 14.0655C4.10266 11.4791 5.37254 9.10328 7.23724 7.23858C9.10194 5.37388 11.4777 4.104 14.0641 3.58953C16.6505 3.07506 19.3314 3.33911 21.7678 4.34828C24.2041 5.35744 26.2865 7.06641 27.7516 9.25907C29.2167 11.4517 29.9987 14.0296 29.9987 16.6667C29.9947 20.2017 28.5887 23.5908 26.089 26.0904C23.5894 28.59 20.2003 29.996 16.6653 30Z" fill="white"/>
</g>
</g>
<defs>
<clipPath id="clip0_462_5021">
<rect width="40" height="40" fill="white"/>
</clipPath>
</defs>
</svg>
