<svg width="31" height="31" viewBox="0 0 31 31" fill="none" xmlns="http://www.w3.org/2000/svg">
<g clip-path="url(#clip0_4002_2506)">
<path d="M15.5 0C11.3901 0 7.44484 1.63404 4.54102 4.5398C1.63421 7.44674 0.000831789 11.3891 0 15.5C0 19.6092 1.63477 23.5544 4.54102 26.4602C7.44484 29.366 11.3901 31 15.5 31C19.6099 31 23.5552 29.366 26.459 26.4602C29.3652 23.5544 31 19.6092 31 15.5C31 11.3908 29.3652 7.44557 26.459 4.5398C23.5552 1.63404 19.6099 0 15.5 0Z" fill="url(#paint0_linear_4002_2506)"/>
<path d="M7.01633 15.3363C11.5356 13.3678 14.5484 12.07 16.0548 11.4429C20.3609 9.65241 21.2545 9.34144 21.8382 9.3309C21.9666 9.32884 22.2524 9.36057 22.4388 9.51133C22.5938 9.63848 22.6374 9.81043 22.6592 9.93116C22.6786 10.0518 22.7052 10.3267 22.6834 10.5412C22.4509 12.9922 21.441 18.9398 20.9276 21.685C20.712 22.8465 20.2834 23.236 19.8692 23.274C18.9683 23.3568 18.2853 22.6792 17.4134 22.1079C16.0499 21.2135 15.2798 20.6569 13.955 19.7843C12.4244 18.7759 13.4174 18.2215 14.2892 17.3157C14.5169 17.0786 18.4839 13.4712 18.559 13.144C18.5687 13.1031 18.5784 12.9505 18.4863 12.8701C18.3967 12.7895 18.2635 12.8171 18.1666 12.8389C18.0286 12.8699 15.8513 14.3104 11.6276 17.1602C11.01 17.585 10.4506 17.7921 9.9468 17.7812C9.39462 17.7693 8.32899 17.4683 7.53704 17.2111C6.56829 16.8955 5.79571 16.7286 5.86352 16.1927C5.89743 15.9137 6.28251 15.6281 7.01633 15.3363Z" fill="white"/>
</g>
<defs>
<linearGradient id="paint0_linear_4002_2506" x1="1550" y1="0" x2="1550" y2="3100" gradientUnits="userSpaceOnUse">
<stop stop-color="#2AABEE"/>
<stop offset="1" stop-color="#229ED9"/>
</linearGradient>
<clipPath id="clip0_4002_2506">
<rect width="31" height="31" fill="white"/>
</clipPath>
</defs>
</svg>
