<svg width="31" height="31" viewBox="0 0 31 31" fill="none" xmlns="http://www.w3.org/2000/svg">
<g clip-path="url(#clip0_4002_2503)">
<circle cx="15.5009" cy="15.5" r="10.54" fill="white"/>
<path d="M15.4991 0.619995C7.28104 0.619995 0.619141 7.2819 0.619141 15.5C0.619141 23.7181 7.28104 30.38 15.4991 30.38C23.7172 30.38 30.3791 23.7181 30.3791 15.5C30.3791 7.2819 23.7172 0.619995 15.4991 0.619995ZM21.2217 17.408C21.2217 17.408 22.5377 18.7069 22.8616 19.3099C22.8709 19.3223 22.8756 19.3347 22.8787 19.3409C23.0104 19.5625 23.0414 19.7346 22.9763 19.8632C22.8678 20.0771 22.4958 20.1825 22.3687 20.1918H20.0437C19.8825 20.1918 19.5446 20.15 19.1354 19.8679C18.8208 19.6478 18.5108 19.2866 18.2085 18.9348C17.7575 18.4109 17.3669 17.9583 16.9732 17.9583C16.9232 17.9582 16.8735 17.9661 16.8259 17.9815C16.5283 18.0776 16.147 18.5023 16.147 19.6338C16.147 19.9872 15.868 20.1903 15.6712 20.1903H14.6063C14.2436 20.1903 12.3542 20.0632 10.6802 18.2977C8.63109 16.1355 6.78659 11.7986 6.77109 11.7583C6.65484 11.4777 6.89509 11.3274 7.15704 11.3274H9.50529C9.81839 11.3274 9.92069 11.518 9.99199 11.687C10.0757 11.8838 10.3826 12.6666 10.8863 13.547C11.7032 14.9823 12.2038 15.5651 12.6053 15.5651C12.6806 15.5642 12.7545 15.5451 12.8207 15.5093C13.3446 15.2179 13.247 13.3501 13.2237 12.9626C13.2237 12.8898 13.2222 12.1272 12.954 11.7614C12.7618 11.4963 12.4348 11.3956 12.2364 11.3584C12.3167 11.2476 12.4225 11.1577 12.5448 11.0964C12.9044 10.9166 13.5523 10.8903 14.1956 10.8903H14.5536C15.2511 10.8996 15.4309 10.9445 15.6836 11.0081C16.1951 11.1305 16.2059 11.4607 16.161 12.5906C16.147 12.9115 16.1331 13.2742 16.1331 13.702C16.1331 13.795 16.1284 13.8942 16.1284 13.9996C16.1129 14.5746 16.0943 15.2272 16.5004 15.4953C16.5534 15.5286 16.6146 15.5463 16.6771 15.5465C16.8182 15.5465 17.2429 15.5465 18.393 13.5733C18.7477 12.9382 19.0559 12.2783 19.3152 11.5986C19.3385 11.5583 19.4067 11.4343 19.4873 11.3863C19.5468 11.356 19.6127 11.3405 19.6795 11.3413H22.44C22.7407 11.3413 22.9469 11.3863 22.9856 11.5025C23.0538 11.687 22.9732 12.2496 21.7131 13.9562L21.1504 14.6986C20.0081 16.1959 20.0081 16.2719 21.2217 17.408Z" fill="#0277FF"/>
</g>
<defs>
<clipPath id="clip0_4002_2503">
<rect width="31" height="31" fill="white"/>
</clipPath>
</defs>
</svg>
