<svg width="31" height="31" viewBox="0 0 31 31" fill="none" xmlns="http://www.w3.org/2000/svg">
<g clip-path="url(#clip0_4002_2509)">
<circle cx="15.5" cy="15.5" r="15.5" fill="#159E09"/>
<path d="M22.3301 8.63156C21.4419 7.73442 20.384 7.02311 19.2181 6.53911C18.0522 6.0551 16.8015 5.8081 15.5391 5.8125C10.2498 5.8125 5.93883 10.1234 5.93883 15.4128C5.93883 17.1081 6.38445 18.755 7.21758 20.2081L5.86133 25.1875L10.9473 23.8506C12.352 24.6159 13.931 25.0228 15.5391 25.0228C20.8285 25.0228 25.1395 20.7119 25.1395 15.4225C25.1395 12.8553 24.1416 10.4431 22.3301 8.63156ZM15.5391 23.3953C14.1054 23.3953 12.7007 23.0078 11.4704 22.2812L11.1798 22.1069L8.15727 22.9012L8.96133 19.9562L8.76758 19.6559C7.97102 18.3839 7.54806 16.9136 7.54695 15.4128C7.54695 11.0147 11.1313 7.43031 15.5295 7.43031C17.6607 7.43031 19.666 8.26343 21.1676 9.77468C21.9111 10.5148 22.5003 11.3951 22.9011 12.3646C23.3018 13.3341 23.5062 14.3734 23.5023 15.4225C23.5216 19.8206 19.9373 23.3953 15.5391 23.3953ZM19.9179 17.4278C19.6757 17.3116 18.4938 16.7303 18.2807 16.6431C18.0579 16.5656 17.9029 16.5269 17.7382 16.7594C17.5735 17.0016 17.1182 17.5441 16.9826 17.6991C16.847 17.8637 16.7016 17.8831 16.4595 17.7572C16.2173 17.6409 15.4423 17.3794 14.5316 16.5656C13.8148 15.9262 13.3401 15.1416 13.1948 14.8994C13.0591 14.6572 13.1754 14.5312 13.3013 14.4053C13.4079 14.2987 13.5435 14.1244 13.6598 13.9887C13.776 13.8531 13.8245 13.7466 13.902 13.5916C13.9795 13.4269 13.9407 13.2912 13.8826 13.175C13.8245 13.0587 13.3401 11.8769 13.1463 11.3925C12.9526 10.9275 12.7491 10.9856 12.6038 10.9759H12.1388C11.9741 10.9759 11.7223 11.0341 11.4995 11.2762C11.2863 11.5184 10.6663 12.0997 10.6663 13.2816C10.6663 14.4634 11.5285 15.6066 11.6448 15.7616C11.761 15.9262 13.3401 18.3481 15.7426 19.3847C16.3141 19.6366 16.7598 19.7819 17.1085 19.8884C17.6801 20.0725 18.2032 20.0434 18.6198 19.9853C19.0848 19.9175 20.0438 19.4041 20.2376 18.8422C20.441 18.2803 20.441 17.8056 20.3732 17.6991C20.3054 17.5925 20.1601 17.5441 19.9179 17.4278Z" fill="white"/>
</g>
<defs>
<clipPath id="clip0_4002_2509">
<rect width="31" height="31" fill="white"/>
</clipPath>
</defs>
</svg>
