<svg width="200" height="58" viewBox="0 0 200 58" fill="none" xmlns="http://www.w3.org/2000/svg">
<g id="&#208;&#155;&#208;&#190;&#208;&#179;&#208;&#190;&#209;&#130;&#208;&#184;&#208;&#191;">
<g id="Vector">
<path d="M35.605 8.15356C26.9253 10.8523 19.3372 16.2657 13.9537 23.5998C8.57014 30.9338 5.65815 39.8057 5.67485 48.9087H13.9836C13.9702 41.5797 16.2955 34.421 20.6299 28.5162C25.203 22.7692 28.8616 19.9191 35.6095 16.9876L35.605 8.15356Z" fill="#2F7ABE"/>
<path d="M0 53.1431C0 50.8045 1.89276 48.9087 4.22761 48.9087H52.5199V57.3775H4.22761C1.89276 57.3775 0 55.4817 0 53.1431Z" fill="#2F7ABE"/>
<path d="M44.0647 48.9087V37.1917H52.5199V48.9087H44.0647Z" fill="#2F7ABE"/>
<path d="M44.0647 25.945V4.77288C44.0647 2.43427 45.9574 0.538452 48.2923 0.538452C50.6271 0.538452 52.5199 2.43427 52.5199 4.77288V25.945H44.0647Z" fill="#2F7ABE"/>
</g>
<g id="Vector_2">
<path fill-rule="evenodd" clip-rule="evenodd" d="M72.3578 7.03654C71.8913 7.30035 71.48 7.61961 71.1241 7.99433C70.2117 8.93205 69.6454 10.1041 69.4253 11.5103C69.3553 11.9574 69.3203 12.4282 69.3203 12.9227V37.1574H74.5964V30.9387V13.1939C74.5964 12.5911 74.7768 12.1239 75.1375 11.7923C75.2883 11.6528 75.4614 11.5402 75.6568 11.4545C75.9681 11.318 76.3362 11.2497 76.761 11.2497C77.3622 11.2497 77.8282 11.4005 78.1589 11.7019C78.5197 11.9732 78.7602 12.365 78.8804 12.8774L81.9397 26.0734H85.2434H87.4955H90.587L93.6781 12.8774C93.7984 12.365 94.0239 11.9732 94.3546 11.7019C94.6853 11.4005 95.1663 11.2497 95.7976 11.2497C96.3066 11.2497 96.726 11.3477 97.0558 11.5438C97.174 11.614 97.2807 11.6969 97.3759 11.7923C97.7667 12.1239 97.9622 12.5911 97.9622 13.1939V30.7525V37.1574H103.238V12.9227C103.238 12.4203 103.202 11.9424 103.13 11.4889C102.907 10.0921 102.342 8.92728 101.434 7.99433C101.08 7.62108 100.67 7.30285 100.206 7.03964C99.0957 6.4101 97.6713 6.09534 95.9329 6.09534C93.7383 6.09534 92.0397 6.62283 90.8372 7.67783C89.6647 8.70268 88.868 10.1797 88.4471 12.1088L86.3695 21.1651L84.2918 12.1088C83.8709 10.1797 83.0291 8.70268 81.7665 7.67783C80.5038 6.62283 78.7902 6.09534 76.6257 6.09534C74.8901 6.09534 73.4675 6.40907 72.3578 7.03654Z" fill="#031521"/>
<path d="M200.001 6.103V11.436H188.254C185.313 11.436 183.168 12.2194 181.818 13.7862C180.498 15.3228 179.838 18.3987 179.838 21.9239C179.838 25.419 180.498 27.95 181.818 29.5167C183.138 31.0534 185.283 31.8217 188.254 31.8217H200.001V37.1547H188.254C183.813 37.1547 180.408 35.9043 178.037 33.4035C175.697 30.8726 174.527 27.0461 174.527 21.9239C174.527 16.7717 175.697 12.4002 178.037 9.89939C180.408 7.36846 183.813 6.103 188.254 6.103H200.001Z" fill="#031521"/>
<path d="M117.643 26.1271L112.827 37.1547H106.977L117.643 10.0376C118.153 8.59135 118.933 7.58199 119.984 7.00952C121.064 6.40692 122.414 6.10561 124.034 6.10561C125.624 6.10561 126.945 6.40692 127.995 7.00952C129.045 7.58199 129.825 8.59135 130.335 10.0376L140.597 37.1547H134.701L132.315 30.8726L125.474 12.6137C125.204 11.9207 124.709 11.5742 123.989 11.5742C123.269 11.5742 122.759 11.9207 122.459 12.6137L119.624 21.0652H131.534L131.009 26.1271H117.643Z" fill="#031521"/>
<path d="M164.998 6.87131C163.768 6.3591 162.298 6.103 160.588 6.103H149.786C148.106 6.103 146.891 6.47963 146.141 7.23288C145.39 7.98613 145.015 9.22147 145.015 10.9389V29.3107H145.06V25.853C145.06 24.1356 145.435 22.9002 146.186 22.147C146.936 21.3937 148.151 21.0171 149.831 21.0171H150.371V11.436H160.813C162.253 11.436 163.303 11.8428 163.963 12.6563C164.653 13.4397 164.998 14.9337 164.998 16.0486C164.998 16.5909 164.908 17.8836 164.728 18.3958C164.578 18.8779 164.338 19.3147 164.008 19.7064C163.678 20.0981 163.243 20.4145 162.703 20.6555C162.163 20.8966 161.518 21.0171 160.768 21.0171H150.371V26.8925C150.371 26.3803 150.626 26.1241 151.136 26.1241H160.588C162.358 26.1241 163.858 25.8379 165.088 25.2654C166.349 24.693 167.369 23.9548 168.149 23.0509C168.929 22.147 169.484 21.1225 169.814 19.9776C170.174 18.8327 170.354 17.6877 170.354 15.7774C170.354 14.5722 170.159 12.8672 169.769 11.7524C169.409 10.6376 168.824 9.67342 168.014 8.8599C167.234 8.01626 166.229 7.3534 164.998 6.87131Z" fill="#031521"/>
<path d="M150.371 29.3107V26.8925V21.0171H149.831C148.151 21.0171 146.936 21.3937 146.186 22.147C145.435 22.9002 145.06 24.1356 145.06 25.853V29.3107H150.371Z" fill="#031521"/>
<path d="M150.371 37.1547V29.3107H145.06V37.1547H150.371Z" fill="#031521"/>
</g>
<g id="&#208;&#188;&#208;&#181;&#208;&#182;&#208;&#180;&#209;&#131;&#208;&#189;&#208;&#176;&#209;&#128;&#208;&#190;&#208;&#180;&#208;&#189;&#208;&#190;&#208;&#181; &#208;&#176;&#208;&#179;&#208;&#181;&#208;&#189;&#209;&#130;&#209;&#129;&#209;&#130;&#208;&#178;&#208;&#190; &#209;&#128;&#208;&#181;&#208;&#186;&#209;&#128;&#209;&#131;&#209;&#130;&#208;&#184;&#208;&#189;&#208;&#179;&#208;&#190;&#208;&#178;&#208;&#190;&#208;&#179;&#208;&#190; &#209;&#129;&#208;&#181;&#209;&#128;&#208;&#178;&#208;&#184;&#209;&#129;&#208;&#176;">
<path d="M74.7436 43.0952V48.4136H74.4096V43.8807C74.4096 43.8156 74.4133 43.7467 74.4208 43.674L72.3301 47.3912C72.295 47.4564 72.245 47.4889 72.1799 47.4889H72.1199C72.0548 47.4889 72.0048 47.4564 71.9697 47.3912L69.8227 43.6665C69.8302 43.7416 69.8339 43.8131 69.8339 43.8807V48.4136H69.4961V43.0952H69.7626C69.7976 43.0952 69.8252 43.0989 69.8452 43.1064C69.8652 43.114 69.8852 43.134 69.9052 43.1666L72.0485 46.865C72.0861 46.9352 72.1186 47.0104 72.1461 47.0905C72.1612 47.0504 72.1774 47.0116 72.1949 46.974C72.2125 46.9339 72.2312 46.8963 72.2512 46.8613L74.3345 43.1666C74.3545 43.134 74.3745 43.114 74.3945 43.1064C74.4171 43.0989 74.4458 43.0952 74.4809 43.0952H74.7436Z" fill="#031521"/>
<path d="M79.5047 48.0941L79.4972 48.4136H76.3142V43.0952H79.4972V43.4147H76.7008V45.5646H79.028V45.8765H76.7008V48.0941H79.5047Z" fill="#031521"/>
<path d="M87.2828 48.4136H87.0275C86.97 48.4136 86.9187 48.401 86.8736 48.376C86.8311 48.3484 86.7961 48.3133 86.7685 48.2707L85.1019 46.1396C85.0294 46.0444 84.948 45.973 84.858 45.9254C84.7704 45.8753 84.6553 45.8502 84.5126 45.8502H83.8332V48.4136H83.4654V45.8502H82.7897C82.6446 45.8502 82.527 45.8753 82.4369 45.9254C82.3493 45.973 82.2705 46.0444 82.2004 46.1396L80.5338 48.2707C80.5063 48.3133 80.47 48.3484 80.4249 48.376C80.3824 48.401 80.3324 48.4136 80.2748 48.4136H80.0196L81.8288 46.0457C81.8989 45.9404 81.9764 45.8577 82.0615 45.7976C82.1466 45.7375 82.2454 45.6936 82.3581 45.666C82.253 45.6385 82.1641 45.5971 82.0915 45.542C82.019 45.4844 81.9477 45.4092 81.8776 45.3165L80.1096 43.0952H80.4062C80.4487 43.0952 80.4888 43.1064 80.5263 43.129C80.5638 43.1516 80.5951 43.1829 80.6201 43.223L82.2567 45.2714C82.3017 45.329 82.3468 45.3766 82.3918 45.4142C82.4394 45.4493 82.4869 45.4769 82.5345 45.4969C82.5845 45.5169 82.6358 45.5307 82.6884 45.5382C82.7409 45.5458 82.7985 45.5495 82.861 45.5495H83.4654V43.0952H83.8332V45.5495H84.4375C84.5001 45.5495 84.5577 45.5458 84.6102 45.5382C84.6653 45.5307 84.7166 45.5169 84.7641 45.4969C84.8142 45.4769 84.8617 45.4493 84.9067 45.4142C84.9518 45.3766 84.9968 45.329 85.0419 45.2714L86.6784 43.223C86.7035 43.1829 86.7348 43.1516 86.7723 43.129C86.8098 43.1064 86.8511 43.0952 86.8962 43.0952H87.1889L85.421 45.3165C85.3534 45.4092 85.2834 45.4844 85.2108 45.542C85.1382 45.5971 85.0494 45.6385 84.9443 45.666C85.0569 45.6936 85.1545 45.7387 85.2371 45.8013C85.3221 45.8615 85.3997 45.9429 85.4698 46.0457L87.2828 48.4136Z" fill="#031521"/>
<path d="M91.647 48.1054V43.4034H89.5112C89.4762 44.1401 89.4274 44.7753 89.3648 45.309C89.3022 45.8427 89.2284 46.2962 89.1433 46.6696C89.0583 47.0404 88.9619 47.3411 88.8543 47.5716C88.7467 47.7997 88.6303 47.9776 88.5052 48.1054H91.647ZM92.957 48.1054V49.6238C92.957 49.6614 92.9445 49.6915 92.9195 49.714C92.8969 49.7366 92.8657 49.7479 92.8256 49.7479H92.6042V48.4136H87.8521V49.6238C87.8521 49.6614 87.8396 49.6915 87.8146 49.714C87.792 49.7366 87.7608 49.7479 87.7207 49.7479H87.4993V48.1054H87.9947C88.0848 48.0703 88.1724 48.0076 88.2575 47.9174C88.3451 47.8272 88.4277 47.6994 88.5052 47.534C88.5828 47.3687 88.6554 47.1607 88.7229 46.9101C88.793 46.6596 88.8556 46.3551 88.9106 45.9968C88.9657 45.6385 89.0132 45.22 89.0532 44.7414C89.0933 44.2628 89.1246 43.7141 89.1471 43.0952H92.0336V48.1054H92.957Z" fill="#031521"/>
<path d="M97.4845 43.0952L95.3075 47.7784C95.2499 47.9036 95.1873 48.0101 95.1198 48.0978C95.0547 48.183 94.9834 48.2532 94.9058 48.3083C94.8282 48.3609 94.7432 48.3985 94.6506 48.4211C94.5605 48.4461 94.4616 48.4587 94.354 48.4587C94.274 48.4587 94.2039 48.4511 94.1438 48.4361C94.0838 48.4211 94.0538 48.3998 94.0538 48.3722V48.1317H94.2827C94.4329 48.1317 94.5667 48.0928 94.6844 48.0151C94.802 47.935 94.9033 47.8034 94.9884 47.6205L95.3112 46.9252L93.1679 43.0952H93.5245C93.5595 43.0952 93.5883 43.1039 93.6108 43.1215C93.6334 43.1365 93.6521 43.1591 93.6671 43.1891L95.3225 46.2073C95.3925 46.3351 95.4476 46.4654 95.4876 46.5982C95.5051 46.533 95.5264 46.4679 95.5514 46.4027C95.5765 46.3351 95.6052 46.2687 95.6378 46.2035L97.0229 43.1891C97.0354 43.1616 97.0529 43.139 97.0754 43.1215C97.1004 43.1039 97.1305 43.0952 97.1655 43.0952H97.4845Z" fill="#031521"/>
<path d="M102.451 43.0952V48.4136H102.064V45.8652H98.7385V48.4136H98.3519V43.0952H98.7385V45.5758H102.064V43.0952H102.451Z" fill="#031521"/>
<path d="M106.879 46.4816L105.798 43.7943C105.761 43.7066 105.724 43.6013 105.689 43.4785C105.674 43.5387 105.658 43.5963 105.641 43.6514C105.623 43.7041 105.604 43.7529 105.584 43.798L104.503 46.4816H106.879ZM108.054 48.4136H107.758C107.723 48.4136 107.694 48.4048 107.671 48.3872C107.649 48.3672 107.631 48.3421 107.619 48.3121L106.996 46.7673H104.387L103.764 48.3121C103.754 48.3396 103.736 48.3634 103.711 48.3835C103.686 48.4035 103.656 48.4136 103.621 48.4136H103.328L105.502 43.0952H105.881L108.054 48.4136Z" fill="#031521"/>
<path d="M110.305 45.963C110.537 45.963 110.746 45.9304 110.932 45.8652C111.117 45.8001 111.273 45.7099 111.401 45.5946C111.531 45.4794 111.63 45.3441 111.697 45.1887C111.767 45.0308 111.802 44.8592 111.802 44.6738C111.802 44.2653 111.677 43.9509 111.427 43.7304C111.177 43.5099 110.803 43.3996 110.305 43.3996H109.318V45.963H110.305ZM110.305 43.0952C110.928 43.0952 111.397 43.2317 111.712 43.5049C112.03 43.778 112.189 44.1676 112.189 44.6738C112.189 44.9068 112.145 45.121 112.058 45.3165C111.97 45.5119 111.845 45.6811 111.682 45.8239C111.52 45.9642 111.322 46.0745 111.089 46.1547C110.857 46.2323 110.595 46.2712 110.305 46.2712H109.318V48.4136H108.931V43.0952H110.305Z" fill="#031521"/>
<path d="M117.989 45.7525C117.989 46.1634 117.928 46.5368 117.805 46.8725C117.683 47.2058 117.51 47.4915 117.287 47.7295C117.065 47.965 116.797 48.148 116.484 48.2782C116.174 48.406 115.831 48.4699 115.456 48.4699C115.08 48.4699 114.737 48.406 114.427 48.2782C114.117 48.148 113.85 47.965 113.628 47.7295C113.405 47.4915 113.232 47.2058 113.11 46.8725C112.987 46.5368 112.926 46.1634 112.926 45.7525C112.926 45.3441 112.987 44.9732 113.11 44.6399C113.232 44.3042 113.405 44.0185 113.628 43.783C113.85 43.5449 114.117 43.3608 114.427 43.2305C114.737 43.1002 115.08 43.035 115.456 43.035C115.831 43.035 116.174 43.1002 116.484 43.2305C116.797 43.3583 117.065 43.5412 117.287 43.7792C117.51 44.0173 117.683 44.3042 117.805 44.6399C117.928 44.9732 117.989 45.3441 117.989 45.7525ZM117.591 45.7525C117.591 45.3816 117.54 45.0484 117.438 44.7527C117.335 44.457 117.19 44.2065 117.002 44.001C116.814 43.7955 116.589 43.6389 116.326 43.5312C116.064 43.4209 115.773 43.3658 115.456 43.3658C115.14 43.3658 114.851 43.4209 114.589 43.5312C114.326 43.6389 114.099 43.7955 113.909 44.001C113.721 44.2065 113.575 44.457 113.47 44.7527C113.367 45.0484 113.316 45.3816 113.316 45.7525C113.316 46.1258 113.367 46.4603 113.47 46.756C113.575 47.0492 113.721 47.2985 113.909 47.504C114.099 47.7094 114.326 47.8661 114.589 47.9738C114.851 48.0815 115.14 48.1354 115.456 48.1354C115.773 48.1354 116.064 48.0815 116.326 47.9738C116.589 47.8661 116.814 47.7094 117.002 47.504C117.19 47.2985 117.335 47.0492 117.438 46.756C117.54 46.4603 117.591 46.1258 117.591 45.7525Z" fill="#031521"/>
<path d="M122.358 48.1054V43.4034H120.222C120.187 44.1401 120.138 44.7753 120.075 45.309C120.013 45.8427 119.939 46.2962 119.854 46.6696C119.769 47.0404 119.673 47.3411 119.565 47.5716C119.457 47.7997 119.341 47.9776 119.216 48.1054H122.358ZM123.668 48.1054V49.6238C123.668 49.6614 123.655 49.6915 123.63 49.714C123.608 49.7366 123.576 49.7479 123.536 49.7479H123.315V48.4136H118.563V49.6238C118.563 49.6614 118.55 49.6915 118.525 49.714C118.503 49.7366 118.471 49.7479 118.431 49.7479H118.21V48.1054H118.705C118.795 48.0703 118.883 48.0076 118.968 47.9174C119.056 47.8272 119.138 47.6994 119.216 47.534C119.293 47.3687 119.366 47.1607 119.434 46.9101C119.504 46.6596 119.566 46.3551 119.621 45.9968C119.676 45.6385 119.724 45.22 119.764 44.7414C119.804 44.2628 119.835 43.7141 119.858 43.0952H122.744V48.1054H123.668Z" fill="#031521"/>
<path d="M128.733 43.0952V48.4136H128.347V45.8652H125.021V48.4136H124.634V43.0952H125.021V45.5758H128.347V43.0952H128.733Z" fill="#031521"/>
<path d="M135.02 45.7525C135.02 46.1634 134.959 46.5368 134.836 46.8725C134.713 47.2058 134.541 47.4915 134.318 47.7295C134.095 47.965 133.827 48.148 133.515 48.2782C133.204 48.406 132.861 48.4699 132.486 48.4699C132.111 48.4699 131.768 48.406 131.458 48.2782C131.147 48.148 130.881 47.965 130.658 47.7295C130.435 47.4915 130.263 47.2058 130.14 46.8725C130.018 46.5368 129.956 46.1634 129.956 45.7525C129.956 45.3441 130.018 44.9732 130.14 44.6399C130.263 44.3042 130.435 44.0185 130.658 43.783C130.881 43.5449 131.147 43.3608 131.458 43.2305C131.768 43.1002 132.111 43.035 132.486 43.035C132.861 43.035 133.204 43.1002 133.515 43.2305C133.827 43.3583 134.095 43.5412 134.318 43.7792C134.541 44.0173 134.713 44.3042 134.836 44.6399C134.959 44.9732 135.02 45.3441 135.02 45.7525ZM134.622 45.7525C134.622 45.3816 134.571 45.0484 134.468 44.7527C134.365 44.457 134.22 44.2065 134.033 44.001C133.845 43.7955 133.62 43.6389 133.357 43.5312C133.094 43.4209 132.804 43.3658 132.486 43.3658C132.171 43.3658 131.882 43.4209 131.619 43.5312C131.356 43.6389 131.13 43.7955 130.94 44.001C130.752 44.2065 130.606 44.457 130.5 44.7527C130.398 45.0484 130.347 45.3816 130.347 45.7525C130.347 46.1258 130.398 46.4603 130.5 46.756C130.606 47.0492 130.752 47.2985 130.94 47.504C131.13 47.7094 131.356 47.8661 131.619 47.9738C131.882 48.0815 132.171 48.1354 132.486 48.1354C132.804 48.1354 133.094 48.0815 133.357 47.9738C133.62 47.8661 133.845 47.7094 134.033 47.504C134.22 47.2985 134.365 47.0492 134.468 46.756C134.571 46.4603 134.622 46.1258 134.622 45.7525Z" fill="#031521"/>
<path d="M139.43 48.0941L139.423 48.4136H136.24V43.0952H139.423V43.4147H136.626V45.5646H138.954V45.8765H136.626V48.0941H139.43Z" fill="#031521"/>
<path d="M145.493 46.4816L144.412 43.7943C144.374 43.7066 144.338 43.6013 144.303 43.4785C144.288 43.5387 144.272 43.5963 144.254 43.6514C144.237 43.7041 144.218 43.7529 144.198 43.798L143.117 46.4816H145.493ZM146.668 48.4136H146.371C146.336 48.4136 146.307 48.4048 146.285 48.3872C146.262 48.3672 146.245 48.3421 146.232 48.3121L145.609 46.7673H143.001L142.377 48.3121C142.367 48.3396 142.35 48.3634 142.325 48.3835C142.3 48.4035 142.27 48.4136 142.235 48.4136H141.942L144.115 43.0952H144.495L146.668 48.4136Z" fill="#031521"/>
<path d="M150.653 43.4034H147.931V48.4136H147.545V43.0952H150.653V43.4034Z" fill="#031521"/>
<path d="M154.738 48.0941L154.731 48.4136H151.548V43.0952H154.731V43.4147H151.934V45.5646H154.261V45.8765H151.934V48.0941H154.738Z" fill="#031521"/>
<path d="M160.001 43.0952V48.4136H159.615V45.8652H156.289V48.4136H155.902V43.0952H156.289V45.5758H159.615V43.0952H160.001Z" fill="#031521"/>
<path d="M165.023 43.4222H163.157V48.4136H162.771V43.4222H160.894V43.0952H165.023V43.4222Z" fill="#031521"/>
<path d="M169.441 47.519C169.466 47.519 169.488 47.5278 169.505 47.5453L169.655 47.7069C169.545 47.8247 169.425 47.9312 169.295 48.0264C169.167 48.1191 169.026 48.1993 168.871 48.267C168.718 48.3321 168.549 48.3822 168.364 48.4173C168.181 48.4549 167.98 48.4737 167.76 48.4737C167.392 48.4737 167.054 48.4098 166.746 48.282C166.441 48.1517 166.178 47.9688 165.958 47.7333C165.738 47.4952 165.566 47.2083 165.444 46.8725C165.324 46.5368 165.264 46.1634 165.264 45.7525C165.264 45.3491 165.326 44.9807 165.451 44.6475C165.576 44.3142 165.752 44.0286 165.977 43.7905C166.202 43.55 166.472 43.3645 166.788 43.2342C167.103 43.1014 167.451 43.035 167.831 43.035C168.194 43.035 168.515 43.0914 168.796 43.2042C169.076 43.3169 169.331 43.476 169.561 43.6815L169.445 43.8506C169.425 43.8807 169.394 43.8957 169.351 43.8957C169.321 43.8957 169.272 43.8682 169.205 43.8131C169.137 43.7579 169.043 43.6978 168.923 43.6326C168.803 43.565 168.653 43.5036 168.473 43.4485C168.295 43.3934 168.081 43.3658 167.831 43.3658C167.511 43.3658 167.217 43.4209 166.949 43.5312C166.684 43.6414 166.455 43.7993 166.262 44.0047C166.072 44.2102 165.923 44.4608 165.815 44.7565C165.708 45.0521 165.654 45.3841 165.654 45.7525C165.654 46.1283 165.708 46.4641 165.815 46.7598C165.925 47.0555 166.076 47.306 166.266 47.5115C166.456 47.7145 166.68 47.8711 166.938 47.9813C167.198 48.0891 167.478 48.1429 167.778 48.1429C167.969 48.1429 168.138 48.1304 168.285 48.1054C168.435 48.0803 168.573 48.0427 168.698 47.9926C168.823 47.9425 168.94 47.8811 169.047 47.8084C169.155 47.7358 169.261 47.6506 169.366 47.5528C169.379 47.5428 169.391 47.5353 169.404 47.5303C169.416 47.5228 169.429 47.519 169.441 47.519Z" fill="#031521"/>
<path d="M174.135 43.4222H172.27V48.4136H171.883V43.4222H170.006V43.0952H174.135V43.4222Z" fill="#031521"/>
<path d="M176.749 48.1054C177.214 48.1054 177.566 48.0051 177.803 47.8047C178.044 47.6017 178.164 47.3173 178.164 46.9515C178.164 46.7836 178.131 46.6332 178.066 46.5004C178.004 46.3651 177.912 46.2511 177.792 46.1584C177.672 46.0632 177.524 45.9905 177.349 45.9404C177.174 45.8903 176.975 45.8652 176.752 45.8652H175.416V48.1054H176.749ZM175.416 43.3996V45.5833H176.565C176.81 45.5833 177.019 45.552 177.192 45.4894C177.367 45.4267 177.509 45.3441 177.62 45.2413C177.732 45.1386 177.815 45.0221 177.867 44.8918C177.92 44.7615 177.946 44.6274 177.946 44.4896C177.946 44.1313 177.832 43.8607 177.605 43.6778C177.379 43.4923 177.03 43.3996 176.557 43.3996H175.416ZM176.557 43.0952C176.86 43.0952 177.123 43.1252 177.346 43.1854C177.568 43.2455 177.752 43.3345 177.897 43.4522C178.042 43.5675 178.15 43.7091 178.22 43.877C178.29 44.0448 178.325 44.2353 178.325 44.4483C178.325 44.5886 178.3 44.7239 178.25 44.8542C178.203 44.9845 178.133 45.1048 178.04 45.215C177.95 45.3253 177.837 45.4217 177.702 45.5044C177.569 45.5846 177.417 45.646 177.244 45.6886C177.662 45.7487 177.982 45.8878 178.205 46.1058C178.43 46.3213 178.543 46.6057 178.543 46.959C178.543 47.1845 178.503 47.3875 178.423 47.5679C178.343 47.7483 178.226 47.9011 178.074 48.0264C177.921 48.1517 177.733 48.2482 177.511 48.3158C177.288 48.381 177.035 48.4136 176.752 48.4136H175.03V43.0952H176.557Z" fill="#031521"/>
<path d="M184.491 45.7525C184.491 46.1634 184.43 46.5368 184.307 46.8725C184.185 47.2058 184.012 47.4915 183.789 47.7295C183.567 47.965 183.299 48.148 182.986 48.2782C182.676 48.406 182.333 48.4699 181.957 48.4699C181.582 48.4699 181.239 48.406 180.929 48.2782C180.619 48.148 180.352 47.965 180.129 47.7295C179.907 47.4915 179.734 47.2058 179.611 46.8725C179.489 46.5368 179.428 46.1634 179.428 45.7525C179.428 45.3441 179.489 44.9732 179.611 44.6399C179.734 44.3042 179.907 44.0185 180.129 43.783C180.352 43.5449 180.619 43.3608 180.929 43.2305C181.239 43.1002 181.582 43.035 181.957 43.035C182.333 43.035 182.676 43.1002 182.986 43.2305C183.299 43.3583 183.567 43.5412 183.789 43.7792C184.012 44.0173 184.185 44.3042 184.307 44.6399C184.43 44.9732 184.491 45.3441 184.491 45.7525ZM184.093 45.7525C184.093 45.3816 184.042 45.0484 183.939 44.7527C183.837 44.457 183.692 44.2065 183.504 44.001C183.316 43.7955 183.091 43.6389 182.828 43.5312C182.566 43.4209 182.275 43.3658 181.957 43.3658C181.642 43.3658 181.353 43.4209 181.09 43.5312C180.828 43.6389 180.601 43.7955 180.411 44.001C180.223 44.2065 180.077 44.457 179.972 44.7527C179.869 45.0484 179.818 45.3816 179.818 45.7525C179.818 46.1258 179.869 46.4603 179.972 46.756C180.077 47.0492 180.223 47.2985 180.411 47.504C180.601 47.7094 180.828 47.8661 181.09 47.9738C181.353 48.0815 181.642 48.1354 181.957 48.1354C182.275 48.1354 182.566 48.0815 182.828 47.9738C183.091 47.8661 183.316 47.7094 183.504 47.504C183.692 47.2985 183.837 47.0492 183.939 46.756C184.042 46.4603 184.093 46.1258 184.093 45.7525Z" fill="#031521"/>
<path d="M70.8699 54.9509C71.1026 54.9509 71.3116 54.9183 71.4968 54.8531C71.6819 54.788 71.8383 54.6978 71.966 54.5825C72.0961 54.4673 72.1949 54.332 72.2625 54.1766C72.3326 54.0187 72.3676 53.8471 72.3676 53.6617C72.3676 53.2532 72.2425 52.9388 71.9922 52.7183C71.742 52.4978 71.3679 52.3875 70.8699 52.3875H69.8827V54.9509H70.8699ZM70.8699 52.0831C71.493 52.0831 71.9622 52.2196 72.2775 52.4928C72.5953 52.7659 72.7542 53.1555 72.7542 53.6617C72.7542 53.8947 72.7104 54.1089 72.6228 54.3044C72.5353 54.4998 72.4101 54.669 72.2475 54.8118C72.0848 54.9521 71.8871 55.0624 71.6544 55.1426C71.4217 55.2202 71.1602 55.2591 70.8699 55.2591H69.8827V57.4015H69.4961V52.0831H70.8699Z" fill="#031521"/>
<path d="M77.0268 57.082L77.0193 57.4015H73.8362V52.0831H77.0193V52.4025H74.2228V54.5525H76.5501V54.8644H74.2228V57.082H77.0268Z" fill="#031521"/>
<path d="M82.106 57.4015H81.7757C81.7256 57.4015 81.6843 57.3902 81.6518 57.3676C81.6193 57.3451 81.5855 57.3087 81.5504 57.2586L79.805 55.1012C79.77 55.0561 79.7349 55.0173 79.6999 54.9847C79.6674 54.9496 79.6298 54.922 79.5873 54.902C79.5473 54.8794 79.501 54.8632 79.4484 54.8531C79.3959 54.8431 79.3346 54.8381 79.2645 54.8381H78.5776V57.4015H78.191V52.0831H78.5776V54.5374H79.1894C79.252 54.5374 79.3083 54.5337 79.3583 54.5261C79.4109 54.5186 79.4597 54.5061 79.5047 54.4886C79.5523 54.4685 79.5973 54.4409 79.6399 54.4059C79.6824 54.3708 79.7262 54.3257 79.7712 54.2706L81.4378 52.2033C81.4629 52.1683 81.4929 52.1394 81.5279 52.1169C81.563 52.0943 81.603 52.0831 81.648 52.0831H81.9596L80.1503 54.3345C80.0853 54.4197 80.0165 54.4873 79.9439 54.5374C79.8713 54.5875 79.7875 54.6264 79.6924 54.6539C79.805 54.679 79.8989 54.7216 79.9739 54.7817C80.0515 54.8394 80.1266 54.9195 80.1991 55.0223L82.106 57.4015Z" fill="#031521"/>
<path d="M84.3668 54.9509C84.5995 54.9509 84.8084 54.9183 84.9936 54.8531C85.1788 54.788 85.3352 54.6978 85.4628 54.5825C85.5929 54.4673 85.6918 54.332 85.7593 54.1766C85.8294 54.0187 85.8644 53.8471 85.8644 53.6617C85.8644 53.2532 85.7393 52.9388 85.4891 52.7183C85.2388 52.4978 84.8647 52.3875 84.3668 52.3875H83.3796V54.9509H84.3668ZM84.3668 52.0831C84.9899 52.0831 85.4591 52.2196 85.7744 52.4928C86.0922 52.7659 86.2511 53.1555 86.2511 53.6617C86.2511 53.8947 86.2073 54.1089 86.1197 54.3044C86.0321 54.4998 85.907 54.669 85.7443 54.8118C85.5817 54.9521 85.384 55.0624 85.1513 55.1426C84.9185 55.2202 84.657 55.2591 84.3668 55.2591H83.3796V57.4015H82.9929V52.0831H84.3668Z" fill="#031521"/>
<path d="M90.9891 52.0831L88.812 56.7663C88.7544 56.8915 88.6918 56.998 88.6243 57.0857C88.5592 57.1709 88.4879 57.2411 88.4103 57.2962C88.3328 57.3488 88.2477 57.3864 88.1551 57.409C88.065 57.434 87.9662 57.4466 87.8585 57.4466C87.7785 57.4466 87.7084 57.439 87.6483 57.424C87.5883 57.409 87.5583 57.3877 87.5583 57.3601V57.1196H87.7872C87.9374 57.1196 88.0713 57.0807 88.1889 57.003C88.3065 56.9229 88.4078 56.7913 88.4929 56.6084L88.8157 55.9131L86.6724 52.0831H87.029C87.064 52.0831 87.0928 52.0918 87.1153 52.1094C87.1379 52.1244 87.1566 52.147 87.1716 52.177L88.827 55.1952C88.897 55.323 88.9521 55.4533 88.9921 55.5861C89.0097 55.5209 89.0309 55.4558 89.0559 55.3906C89.081 55.323 89.1097 55.2566 89.1423 55.1914L90.5274 52.177C90.5399 52.1495 90.5574 52.1269 90.5799 52.1094C90.6049 52.0918 90.635 52.0831 90.67 52.0831H90.9891Z" fill="#031521"/>
<path d="M95.3097 52.4101H93.4442V57.4015H93.0576V52.4101H91.1808V52.0831H95.3097V52.4101Z" fill="#031521"/>
<path d="M100.303 52.0831V57.4015H99.9162V53.034C99.9162 52.9538 99.9174 52.8724 99.9199 52.7897C99.9249 52.7045 99.9324 52.6168 99.9425 52.5266C99.9074 52.6043 99.8724 52.6757 99.8374 52.7408C99.8023 52.8035 99.7673 52.8623 99.7323 52.9175L96.6656 57.2812C96.6455 57.3138 96.6193 57.3426 96.5867 57.3676C96.5567 57.3902 96.5229 57.4015 96.4854 57.4015H96.2039V52.0831H96.5905V56.4505C96.5905 56.5307 96.5892 56.6122 96.5867 56.6948C96.5842 56.7775 96.578 56.8627 96.568 56.9504C96.6005 56.8753 96.6343 56.8063 96.6693 56.7437C96.7043 56.6786 96.7394 56.6184 96.7744 56.5633L99.8449 52.2033C99.8649 52.1708 99.8899 52.1432 99.9199 52.1207C99.95 52.0956 99.9837 52.0831 100.021 52.0831H100.303Z" fill="#031521"/>
<path d="M105.97 52.0831V57.4015H105.583V54.8531H102.258V57.4015H101.871V52.0831H102.258V54.5637H105.583V52.0831H105.97Z" fill="#031521"/>
<path d="M110.646 52.3913H107.925V57.4015H107.538V52.0831H110.646V52.3913Z" fill="#031521"/>
<path d="M115.922 54.7404C115.922 55.1513 115.861 55.5247 115.738 55.8604C115.615 56.1937 115.443 56.4794 115.22 56.7174C114.997 56.9529 114.73 57.1358 114.417 57.2661C114.106 57.3939 113.764 57.4578 113.388 57.4578C113.013 57.4578 112.67 57.3939 112.36 57.2661C112.049 57.1358 111.783 56.9529 111.56 56.7174C111.337 56.4794 111.165 56.1937 111.042 55.8604C110.92 55.5247 110.858 55.1513 110.858 54.7404C110.858 54.332 110.92 53.9611 111.042 53.6278C111.165 53.2921 111.337 53.0064 111.56 52.7709C111.783 52.5328 112.049 52.3487 112.36 52.2184C112.67 52.0881 113.013 52.0229 113.388 52.0229C113.764 52.0229 114.106 52.0881 114.417 52.2184C114.73 52.3462 114.997 52.5291 115.22 52.7671C115.443 53.0052 115.615 53.2921 115.738 53.6278C115.861 53.9611 115.922 54.332 115.922 54.7404ZM115.524 54.7404C115.524 54.3695 115.473 54.0363 115.37 53.7406C115.268 53.4449 115.122 53.1944 114.935 52.9889C114.747 52.7834 114.522 52.6268 114.259 52.5191C113.996 52.4088 113.706 52.3537 113.388 52.3537C113.073 52.3537 112.784 52.4088 112.521 52.5191C112.258 52.6268 112.032 52.7834 111.842 52.9889C111.654 53.1944 111.508 53.4449 111.403 53.7406C111.3 54.0363 111.249 54.3695 111.249 54.7404C111.249 55.1137 111.3 55.4482 111.403 55.7439C111.508 56.0371 111.654 56.2864 111.842 56.4919C112.032 56.6973 112.258 56.854 112.521 56.9617C112.784 57.0694 113.073 57.1233 113.388 57.1233C113.706 57.1233 113.996 57.0694 114.259 56.9617C114.522 56.854 114.747 56.6973 114.935 56.4919C115.122 56.2864 115.268 56.0371 115.37 55.7439C115.473 55.4482 115.524 55.1137 115.524 54.7404Z" fill="#031521"/>
<path d="M118.861 57.0933C119.327 57.0933 119.678 56.993 119.916 56.7926C120.156 56.5896 120.276 56.3052 120.276 55.9394C120.276 55.7715 120.244 55.6211 120.179 55.4883C120.116 55.353 120.025 55.239 119.905 55.1463C119.784 55.0511 119.637 54.9784 119.462 54.9283C119.286 54.8782 119.088 54.8531 118.865 54.8531H117.529V57.0933H118.861ZM117.529 52.3875V54.5712H118.677C118.922 54.5712 119.131 54.5399 119.304 54.4773C119.479 54.4146 119.622 54.332 119.732 54.2292C119.845 54.1265 119.927 54.01 119.98 53.8797C120.032 53.7494 120.058 53.6153 120.058 53.4775C120.058 53.1192 119.945 52.8486 119.717 52.6656C119.492 52.4802 119.143 52.3875 118.67 52.3875H117.529ZM118.67 52.0831C118.972 52.0831 119.235 52.1131 119.458 52.1733C119.681 52.2334 119.865 52.3224 120.01 52.4401C120.155 52.5554 120.262 52.697 120.332 52.8649C120.403 53.0327 120.438 53.2232 120.438 53.4362C120.438 53.5765 120.413 53.7118 120.363 53.8421C120.315 53.9724 120.245 54.0927 120.152 54.2029C120.062 54.3132 119.95 54.4096 119.815 54.4923C119.682 54.5725 119.529 54.6339 119.357 54.6765C119.774 54.7366 120.095 54.8757 120.317 55.0937C120.543 55.3092 120.655 55.5936 120.655 55.9469C120.655 56.1724 120.615 56.3754 120.535 56.5558C120.455 56.7362 120.339 56.889 120.186 57.0143C120.033 57.1396 119.846 57.2361 119.623 57.3037C119.4 57.3689 119.148 57.4015 118.865 57.4015H117.142V52.0831H118.67Z" fill="#031521"/>
<path d="M126.604 54.7404C126.604 55.1513 126.542 55.5247 126.42 55.8604C126.297 56.1937 126.124 56.4794 125.902 56.7174C125.679 56.9529 125.411 57.1358 125.098 57.2661C124.788 57.3939 124.445 57.4578 124.07 57.4578C123.694 57.4578 123.352 57.3939 123.041 57.2661C122.731 57.1358 122.465 56.9529 122.242 56.7174C122.019 56.4794 121.846 56.1937 121.724 55.8604C121.601 55.5247 121.54 55.1513 121.54 54.7404C121.54 54.332 121.601 53.9611 121.724 53.6278C121.846 53.2921 122.019 53.0064 122.242 52.7709C122.465 52.5328 122.731 52.3487 123.041 52.2184C123.352 52.0881 123.694 52.0229 124.07 52.0229C124.445 52.0229 124.788 52.0881 125.098 52.2184C125.411 52.3462 125.679 52.5291 125.902 52.7671C126.124 53.0052 126.297 53.2921 126.42 53.6278C126.542 53.9611 126.604 54.332 126.604 54.7404ZM126.206 54.7404C126.206 54.3695 126.154 54.0363 126.052 53.7406C125.949 53.4449 125.804 53.1944 125.616 52.9889C125.429 52.7834 125.203 52.6268 124.941 52.5191C124.678 52.4088 124.388 52.3537 124.07 52.3537C123.755 52.3537 123.466 52.4088 123.203 52.5191C122.94 52.6268 122.714 52.7834 122.523 52.9889C122.336 53.1944 122.189 53.4449 122.084 53.7406C121.982 54.0363 121.93 54.3695 121.93 54.7404C121.93 55.1137 121.982 55.4482 122.084 55.7439C122.189 56.0371 122.336 56.2864 122.523 56.4919C122.714 56.6973 122.94 56.854 123.203 56.9617C123.466 57.0694 123.755 57.1233 124.07 57.1233C124.388 57.1233 124.678 57.0694 124.941 56.9617C125.203 56.854 125.429 56.6973 125.616 56.4919C125.804 56.2864 125.949 56.0371 126.052 55.7439C126.154 55.4482 126.206 55.1137 126.206 54.7404Z" fill="#031521"/>
<path d="M130.932 52.3913H128.21V57.4015H127.824V52.0831H130.932V52.3913Z" fill="#031521"/>
<path d="M136.207 54.7404C136.207 55.1513 136.146 55.5247 136.024 55.8604C135.901 56.1937 135.728 56.4794 135.506 56.7174C135.283 56.9529 135.015 57.1358 134.702 57.2661C134.392 57.3939 134.049 57.4578 133.674 57.4578C133.298 57.4578 132.956 57.3939 132.645 57.2661C132.335 57.1358 132.069 56.9529 131.846 56.7174C131.623 56.4794 131.45 56.1937 131.328 55.8604C131.205 55.5247 131.144 55.1513 131.144 54.7404C131.144 54.332 131.205 53.9611 131.328 53.6278C131.45 53.2921 131.623 53.0064 131.846 52.7709C132.069 52.5328 132.335 52.3487 132.645 52.2184C132.956 52.0881 133.298 52.0229 133.674 52.0229C134.049 52.0229 134.392 52.0881 134.702 52.2184C135.015 52.3462 135.283 52.5291 135.506 52.7671C135.728 53.0052 135.901 53.2921 136.024 53.6278C136.146 53.9611 136.207 54.332 136.207 54.7404ZM135.81 54.7404C135.81 54.3695 135.758 54.0363 135.656 53.7406C135.553 53.4449 135.408 53.1944 135.22 52.9889C135.033 52.7834 134.807 52.6268 134.545 52.5191C134.282 52.4088 133.992 52.3537 133.674 52.3537C133.359 52.3537 133.069 52.4088 132.807 52.5191C132.544 52.6268 132.318 52.7834 132.127 52.9889C131.94 53.1944 131.793 53.4449 131.688 53.7406C131.586 54.0363 131.534 54.3695 131.534 54.7404C131.534 55.1137 131.586 55.4482 131.688 55.7439C131.793 56.0371 131.94 56.2864 132.127 56.4919C132.318 56.6973 132.544 56.854 132.807 56.9617C133.069 57.0694 133.359 57.1233 133.674 57.1233C133.992 57.1233 134.282 57.0694 134.545 56.9617C134.807 56.854 135.033 56.6973 135.22 56.4919C135.408 56.2864 135.553 56.0371 135.656 55.7439C135.758 55.4482 135.81 55.1137 135.81 54.7404Z" fill="#031521"/>
<path d="M143.298 56.5069C143.323 56.5069 143.344 56.5157 143.362 56.5332L143.512 56.6948C143.402 56.8126 143.282 56.9191 143.152 57.0143C143.024 57.107 142.883 57.1872 142.728 57.2549C142.575 57.32 142.406 57.3701 142.221 57.4052C142.038 57.4428 141.837 57.4616 141.616 57.4616C141.249 57.4616 140.911 57.3977 140.603 57.2699C140.298 57.1396 140.035 56.9567 139.815 56.7212C139.594 56.4831 139.423 56.1962 139.3 55.8604C139.18 55.5247 139.12 55.1513 139.12 54.7404C139.12 54.337 139.183 53.9686 139.308 53.6354C139.433 53.3021 139.608 53.0164 139.833 52.7784C140.059 52.5379 140.329 52.3524 140.644 52.2221C140.96 52.0893 141.307 52.0229 141.688 52.0229C142.051 52.0229 142.372 52.0793 142.652 52.1921C142.933 52.3048 143.188 52.4639 143.418 52.6694L143.302 52.8385C143.282 52.8686 143.251 52.8836 143.208 52.8836C143.178 52.8836 143.129 52.8561 143.062 52.801C142.994 52.7458 142.9 52.6857 142.78 52.6205C142.66 52.5529 142.51 52.4915 142.33 52.4364C142.152 52.3812 141.938 52.3537 141.688 52.3537C141.367 52.3537 141.073 52.4088 140.806 52.5191C140.54 52.6293 140.311 52.7872 140.119 52.9926C139.929 53.1981 139.78 53.4487 139.672 53.7444C139.564 54.04 139.511 54.372 139.511 54.7404C139.511 55.1162 139.564 55.452 139.672 55.7477C139.782 56.0434 139.932 56.2939 140.122 56.4994C140.313 56.7024 140.537 56.859 140.794 56.9692C141.055 57.077 141.335 57.1308 141.635 57.1308C141.825 57.1308 141.994 57.1183 142.142 57.0933C142.292 57.0682 142.43 57.0306 142.555 56.9805C142.68 56.9304 142.796 56.869 142.904 56.7963C143.012 56.7237 143.118 56.6385 143.223 56.5407C143.235 56.5307 143.248 56.5232 143.261 56.5182C143.273 56.5107 143.286 56.5069 143.298 56.5069Z" fill="#031521"/>
<path d="M147.729 57.082L147.722 57.4015H144.539V52.0831H147.722V52.4025H144.925V54.5525H147.253V54.8644H144.925V57.082H147.729Z" fill="#031521"/>
<path d="M150.267 54.9509C150.5 54.9509 150.709 54.9183 150.894 54.8531C151.079 54.788 151.236 54.6978 151.363 54.5825C151.494 54.4673 151.592 54.332 151.66 54.1766C151.73 54.0187 151.765 53.8471 151.765 53.6617C151.765 53.2532 151.64 52.9388 151.39 52.7183C151.14 52.4978 150.765 52.3875 150.267 52.3875H149.28V54.9509H150.267ZM150.267 52.0831C150.891 52.0831 151.36 52.2196 151.675 52.4928C151.993 52.7659 152.152 53.1555 152.152 53.6617C152.152 53.8947 152.108 54.1089 152.02 54.3044C151.933 54.4998 151.808 54.669 151.645 54.8118C151.482 54.9521 151.285 55.0624 151.052 55.1426C150.819 55.2202 150.558 55.2591 150.267 55.2591H149.28V57.4015H148.894V52.0831H150.267Z" fill="#031521"/>
<path d="M154.953 57.0933C155.418 57.0933 155.77 56.993 156.008 56.7926C156.248 56.5896 156.368 56.3052 156.368 55.9394C156.368 55.7715 156.335 55.6211 156.27 55.4883C156.208 55.353 156.116 55.239 155.996 55.1463C155.876 55.0511 155.729 54.9784 155.553 54.9283C155.378 54.8782 155.179 54.8531 154.957 54.8531H153.62V57.0933H154.953ZM153.62 52.3875V54.5712H154.769C155.014 54.5712 155.223 54.5399 155.396 54.4773C155.571 54.4146 155.714 54.332 155.824 54.2292C155.936 54.1265 156.019 54.01 156.071 53.8797C156.124 53.7494 156.15 53.6153 156.15 53.4775C156.15 53.1192 156.036 52.8486 155.809 52.6656C155.583 52.4802 155.234 52.3875 154.761 52.3875H153.62ZM154.761 52.0831C155.064 52.0831 155.327 52.1131 155.55 52.1733C155.772 52.2334 155.956 52.3224 156.101 52.4401C156.247 52.5554 156.354 52.697 156.424 52.8649C156.494 53.0327 156.529 53.2232 156.529 53.4362C156.529 53.5765 156.504 53.7118 156.454 53.8421C156.407 53.9724 156.337 54.0927 156.244 54.2029C156.154 54.3132 156.041 54.4096 155.906 54.4923C155.774 54.5725 155.621 54.6339 155.448 54.6765C155.866 54.7366 156.187 54.8757 156.409 55.0937C156.634 55.3092 156.747 55.5936 156.747 55.9469C156.747 56.1724 156.707 56.3754 156.627 56.5558C156.547 56.7362 156.431 56.889 156.278 57.0143C156.125 57.1396 155.938 57.2361 155.715 57.3037C155.492 57.3689 155.239 57.4015 154.957 57.4015H153.234V52.0831H154.761Z" fill="#031521"/>
<path d="M162.076 52.0831V57.4015H161.689V53.034C161.689 52.9538 161.691 52.8724 161.693 52.7897C161.698 52.7045 161.706 52.6168 161.716 52.5266C161.681 52.6043 161.646 52.6757 161.611 52.7408C161.575 52.8035 161.54 52.8623 161.505 52.9175L158.439 57.2812C158.419 57.3138 158.392 57.3426 158.36 57.3676C158.33 57.3902 158.296 57.4015 158.259 57.4015H157.977V52.0831H158.364V56.4505C158.364 56.5307 158.362 56.6122 158.36 56.6948C158.357 56.7775 158.351 56.8627 158.341 56.9504C158.374 56.8753 158.407 56.8063 158.442 56.7437C158.478 56.6786 158.513 56.6184 158.548 56.5633L161.618 52.2033C161.638 52.1708 161.663 52.1432 161.693 52.1207C161.723 52.0956 161.757 52.0831 161.794 52.0831H162.076Z" fill="#031521"/>
<path d="M167.477 56.5069C167.502 56.5069 167.523 56.5157 167.54 56.5332L167.69 56.6948C167.58 56.8126 167.46 56.9191 167.33 57.0143C167.203 57.107 167.061 57.1872 166.906 57.2549C166.753 57.32 166.584 57.3701 166.399 57.4052C166.217 57.4428 166.015 57.4616 165.795 57.4616C165.427 57.4616 165.089 57.3977 164.781 57.2699C164.476 57.1396 164.213 56.9567 163.993 56.7212C163.773 56.4831 163.602 56.1962 163.479 55.8604C163.359 55.5247 163.299 55.1513 163.299 54.7404C163.299 54.337 163.361 53.9686 163.486 53.6354C163.612 53.3021 163.787 53.0164 164.012 52.7784C164.237 52.5379 164.507 52.3524 164.823 52.2221C165.138 52.0893 165.486 52.0229 165.866 52.0229C166.229 52.0229 166.551 52.0793 166.831 52.1921C167.111 52.3048 167.366 52.4639 167.597 52.6694L167.48 52.8385C167.46 52.8686 167.429 52.8836 167.386 52.8836C167.356 52.8836 167.308 52.8561 167.24 52.801C167.172 52.7458 167.079 52.6857 166.959 52.6205C166.838 52.5529 166.688 52.4915 166.508 52.4364C166.33 52.3812 166.116 52.3537 165.866 52.3537C165.546 52.3537 165.252 52.4088 164.984 52.5191C164.719 52.6293 164.49 52.7872 164.297 52.9926C164.107 53.1981 163.958 53.4487 163.851 53.7444C163.743 54.04 163.689 54.372 163.689 54.7404C163.689 55.1162 163.743 55.452 163.851 55.7477C163.961 56.0434 164.111 56.2939 164.301 56.4994C164.491 56.7024 164.715 56.859 164.973 56.9692C165.233 57.077 165.513 57.1308 165.814 57.1308C166.004 57.1308 166.173 57.1183 166.32 57.0933C166.471 57.0682 166.608 57.0306 166.733 56.9805C166.858 56.9304 166.975 56.869 167.082 56.7963C167.19 56.7237 167.296 56.6385 167.401 56.5407C167.414 56.5307 167.426 56.5232 167.439 56.5182C167.452 56.5107 167.464 56.5069 167.477 56.5069Z" fill="#031521"/>
<path d="M171.578 55.4695L170.497 52.7822C170.459 52.6945 170.423 52.5892 170.388 52.4664C170.373 52.5266 170.356 52.5842 170.339 52.6393C170.321 52.692 170.303 52.7408 170.283 52.7859L169.202 55.4695H171.578ZM172.752 57.4015H172.456C172.421 57.4015 172.392 57.3927 172.37 57.3751C172.347 57.3551 172.33 57.33 172.317 57.3L171.694 55.7552H169.085L168.462 57.3C168.452 57.3275 168.435 57.3513 168.41 57.3714C168.385 57.3914 168.354 57.4015 168.319 57.4015H168.027L170.2 52.0831H170.579L172.752 57.4015Z" fill="#031521"/>
</g>
</g>
</svg>
