<svg width="200" height="57" viewBox="0 0 200 57" fill="none" xmlns="http://www.w3.org/2000/svg">
<g id="&#208;&#155;&#208;&#190;&#208;&#179;&#208;&#190;">
<g id="Vector">
<path d="M35.605 7.62539C26.9253 10.3278 19.3372 15.7485 13.9537 23.0925C8.57014 30.4365 5.65815 39.3203 5.67485 48.4356H13.9836C13.9702 41.0967 16.2955 33.9284 20.6299 28.0156C25.203 22.2608 28.8616 19.4069 35.6095 16.4714L35.605 7.62539Z" fill="#2F7ABE"/>
<path d="M0 52.6757C0 50.334 1.89276 48.4356 4.22761 48.4356H52.5199V56.9159H4.22761C1.89276 56.9159 0 55.0175 0 52.6757Z" fill="#2F7ABE"/>
<path d="M44.0647 48.4356V36.7028H52.5199V48.4356H44.0647Z" fill="#2F7ABE"/>
<path d="M44.0647 25.4409V4.24015C44.0647 1.89838 45.9574 -2.79253e-08 48.2923 0C50.6271 2.79253e-08 52.5199 1.89838 52.5199 4.24015V25.4409H44.0647Z" fill="#2F7ABE"/>
</g>
<g id="Vector_2">
<path fill-rule="evenodd" clip-rule="evenodd" d="M72.3578 6.50687C71.8913 6.77103 71.48 7.09073 71.1241 7.46595C70.2117 8.40494 69.6454 9.57853 69.4253 10.9867C69.3553 11.4344 69.3203 11.9058 69.3203 12.4009V36.6684H74.5964V30.4413V12.6726C74.5964 12.0689 74.7768 11.6011 75.1375 11.2691C75.2883 11.1294 75.4614 11.0166 75.6568 10.9308C75.9681 10.7941 76.3362 10.7258 76.761 10.7258C77.3622 10.7258 77.8282 10.8767 78.1589 11.1785C78.5197 11.4502 78.7602 11.8425 78.8804 12.3557L81.9397 25.5694H85.2434H87.4955H90.587L93.6781 12.3557C93.7984 11.8425 94.0239 11.4502 94.3546 11.1785C94.6853 10.8767 95.1663 10.7258 95.7976 10.7258C96.3066 10.7258 96.726 10.8239 97.0558 11.0202C97.174 11.0905 97.2807 11.1735 97.3759 11.2691C97.7667 11.6011 97.9622 12.0689 97.9622 12.6726V30.2548V36.6684H103.238V12.4009C103.238 11.8979 103.202 11.4193 103.13 10.9652C102.907 9.56658 102.342 8.40016 101.434 7.46595C101.08 7.09219 100.67 6.77353 100.206 6.50997C99.0957 5.87959 97.6713 5.56439 95.9329 5.56439C93.7383 5.56439 92.0397 6.0926 90.8372 7.14902C89.6647 8.17526 88.868 9.65425 88.4471 11.586L86.3695 20.6546L84.2918 11.586C83.8709 9.65425 83.0291 8.17526 81.7665 7.14902C80.5038 6.0926 78.7902 5.56439 76.6257 5.56439C74.8901 5.56439 73.4675 5.87855 72.3578 6.50687Z" fill="white"/>
<path d="M200.001 5.57206V10.9123H188.254C185.313 10.9123 183.168 11.6967 181.818 13.2656C180.498 14.8043 179.838 17.8844 179.838 21.4144C179.838 24.9142 180.498 27.4485 181.818 29.0174C183.138 30.5561 185.283 31.3255 188.254 31.3255H200.001V36.6657H188.254C183.813 36.6657 180.408 35.4136 178.037 32.9095C175.697 30.3751 174.527 26.5434 174.527 21.4144C174.527 16.2552 175.697 11.8778 178.037 9.37359C180.408 6.83924 183.813 5.57206 188.254 5.57206H200.001Z" fill="white"/>
<path d="M117.643 25.6232L112.827 36.6657H106.977L117.643 9.51198C118.153 8.06378 118.933 7.05306 119.984 6.47981C121.064 5.87639 122.414 5.57468 124.034 5.57468C125.624 5.57468 126.945 5.87639 127.995 6.47981C129.045 7.05306 129.825 8.06378 130.335 9.51198L140.597 36.6657H134.701L132.315 30.3751L125.474 12.0916C125.204 11.3977 124.709 11.0507 123.989 11.0507C123.269 11.0507 122.759 11.3977 122.459 12.0916L119.624 20.5545H131.534L131.009 25.6232H117.643Z" fill="white"/>
<path d="M164.998 6.34142C163.768 5.82851 162.298 5.57206 160.588 5.57206H149.786C148.106 5.57206 146.891 5.9492 146.141 6.70347C145.39 7.45774 145.015 8.69475 145.015 10.4145V28.8111H145.06V25.3487C145.06 23.629 145.435 22.392 146.186 21.6377C146.936 20.8834 148.151 20.5063 149.831 20.5063H150.371V10.9123H160.813C162.253 10.9123 163.303 11.3196 163.963 12.1342C164.653 12.9187 164.998 14.4147 164.998 15.5311C164.998 16.0741 164.908 17.3685 164.728 17.8814C164.578 18.3642 164.338 18.8017 164.008 19.1939C163.678 19.5861 163.243 19.9029 162.703 20.1443C162.163 20.3856 161.518 20.5063 160.768 20.5063H150.371V26.3896C150.371 25.8767 150.626 25.6203 151.136 25.6203H160.588C162.358 25.6203 163.858 25.3336 165.088 24.7604C166.349 24.1872 167.369 23.448 168.149 22.5428C168.929 21.6377 169.484 20.6119 169.814 19.4654C170.174 18.3189 170.354 17.1724 170.354 15.2595C170.354 14.0527 170.159 12.3454 169.769 11.2291C169.409 10.1128 168.824 9.14731 168.014 8.33269C167.234 7.48791 166.229 6.82415 164.998 6.34142Z" fill="white"/>
<path d="M150.371 28.8111V26.3896V20.5063H149.831C148.151 20.5063 146.936 20.8834 146.186 21.6377C145.435 22.392 145.06 23.629 145.06 25.3487V28.8111H150.371Z" fill="white"/>
<path d="M150.371 36.6657V28.8111H145.06V36.6657H150.371Z" fill="white"/>
</g>
<g id="&#208;&#188;&#208;&#181;&#208;&#182;&#208;&#180;&#209;&#131;&#208;&#189;&#208;&#176;&#209;&#128;&#208;&#190;&#208;&#180;&#208;&#189;&#208;&#190;&#208;&#181; &#208;&#176;&#208;&#179;&#208;&#181;&#208;&#189;&#209;&#130;&#209;&#129;&#209;&#130;&#208;&#178;&#208;&#190; &#209;&#128;&#208;&#181;&#208;&#186;&#209;&#128;&#209;&#131;&#209;&#130;&#208;&#184;&#208;&#189;&#208;&#179;&#208;&#190;&#208;&#178;&#208;&#190;&#208;&#179;&#208;&#190; &#209;&#129;&#208;&#181;&#209;&#128;&#208;&#178;&#208;&#184;&#209;&#129;&#208;&#176;">
<path d="M74.7436 42.6142V47.9398H74.4096V43.4008C74.4096 43.3356 74.4133 43.2666 74.4208 43.1938L72.3301 46.9161C72.295 46.9813 72.245 47.0139 72.1799 47.0139H72.1199C72.0548 47.0139 72.0048 46.9813 71.9697 46.9161L69.8227 43.1863C69.8302 43.2616 69.8339 43.3331 69.8339 43.4008V47.9398H69.4961V42.6142H69.7626C69.7976 42.6142 69.8252 42.618 69.8452 42.6255C69.8652 42.6331 69.8852 42.6531 69.9052 42.6857L72.0485 46.3892C72.0861 46.4594 72.1186 46.5347 72.1461 46.615C72.1612 46.5749 72.1774 46.536 72.1949 46.4983C72.2125 46.4582 72.2312 46.4205 72.2512 46.3854L74.3345 42.6857C74.3545 42.6531 74.3745 42.6331 74.3945 42.6255C74.4171 42.618 74.4458 42.6142 74.4809 42.6142H74.7436Z" fill="white"/>
<path d="M79.5047 47.6199L79.4972 47.9398H76.3142V42.6142H79.4972V42.9341H76.7008V45.087H79.028V45.3993H76.7008V47.6199H79.5047Z" fill="white"/>
<path d="M87.2828 47.9398H87.0275C86.97 47.9398 86.9187 47.9273 86.8736 47.9022C86.8311 47.8746 86.7961 47.8394 86.7685 47.7968L85.1019 45.6628C85.0294 45.5674 84.948 45.4959 84.858 45.4483C84.7704 45.3981 84.6553 45.373 84.5126 45.373H83.8332V47.9398H83.4654V45.373H82.7897C82.6446 45.373 82.527 45.3981 82.4369 45.4483C82.3493 45.4959 82.2705 45.5674 82.2004 45.6628L80.5338 47.7968C80.5063 47.8394 80.47 47.8746 80.4249 47.9022C80.3824 47.9273 80.3324 47.9398 80.2748 47.9398H80.0196L81.8288 45.5687C81.8989 45.4633 81.9764 45.3805 82.0615 45.3203C82.1466 45.2601 82.2454 45.2162 82.3581 45.1886C82.253 45.161 82.1641 45.1196 82.0915 45.0644C82.019 45.0067 81.9477 44.9314 81.8776 44.8386L80.1096 42.6142H80.4062C80.4487 42.6142 80.4888 42.6255 80.5263 42.6481C80.5638 42.6707 80.5951 42.7021 80.6201 42.7422L82.2567 44.7934C82.3017 44.8511 82.3468 44.8988 82.3918 44.9364C82.4394 44.9715 82.4869 44.9991 82.5345 45.0192C82.5845 45.0393 82.6358 45.0531 82.6884 45.0606C82.7409 45.0681 82.7985 45.0719 82.861 45.0719H83.4654V42.6142H83.8332V45.0719H84.4375C84.5001 45.0719 84.5577 45.0681 84.6102 45.0606C84.6653 45.0531 84.7166 45.0393 84.7641 45.0192C84.8142 44.9991 84.8617 44.9715 84.9067 44.9364C84.9518 44.8988 84.9968 44.8511 85.0419 44.7934L86.6784 42.7422C86.7035 42.7021 86.7348 42.6707 86.7723 42.6481C86.8098 42.6255 86.8511 42.6142 86.8962 42.6142H87.1889L85.421 44.8386C85.3534 44.9314 85.2834 45.0067 85.2108 45.0644C85.1382 45.1196 85.0494 45.161 84.9443 45.1886C85.0569 45.2162 85.1545 45.2613 85.2371 45.3241C85.3221 45.3843 85.3997 45.4658 85.4698 45.5687L87.2828 47.9398Z" fill="white"/>
<path d="M91.647 47.6312V42.9229H89.5112C89.4762 43.6605 89.4274 44.2966 89.3648 44.831C89.3022 45.3655 89.2284 45.8196 89.1433 46.1935C89.0583 46.5648 88.9619 46.8659 88.8543 47.0967C88.7467 47.3251 88.6303 47.5032 88.5052 47.6312H91.647ZM92.957 47.6312V49.1517C92.957 49.1893 92.9445 49.2194 92.9195 49.242C92.8969 49.2646 92.8657 49.2759 92.8256 49.2759H92.6042V47.9398H87.8521V49.1517C87.8521 49.1893 87.8396 49.2194 87.8146 49.242C87.792 49.2646 87.7608 49.2759 87.7207 49.2759H87.4993V47.6312H87.9947C88.0848 47.5961 88.1724 47.5333 88.2575 47.443C88.3451 47.3527 88.4277 47.2247 88.5052 47.0591C88.5828 46.8935 88.6554 46.6853 88.7229 46.4343C88.793 46.1834 88.8556 45.8786 88.9106 45.5198C88.9657 45.161 89.0132 44.742 89.0532 44.2627C89.0933 43.7835 89.1246 43.234 89.1471 42.6142H92.0336V47.6312H92.957Z" fill="white"/>
<path d="M97.4845 42.6142L95.3075 47.3037C95.2499 47.4292 95.1873 47.5358 95.1198 47.6237C95.0547 47.709 94.9834 47.7792 94.9058 47.8344C94.8282 47.8871 94.7432 47.9248 94.6506 47.9473C94.5605 47.9724 94.4616 47.985 94.354 47.985C94.274 47.985 94.2039 47.9774 94.1438 47.9624C94.0838 47.9473 94.0538 47.926 94.0538 47.8984V47.6575H94.2827C94.4329 47.6575 94.5667 47.6186 94.6844 47.5409C94.802 47.4606 94.9033 47.3288 94.9884 47.1457L95.3112 46.4494L93.1679 42.6142H93.5245C93.5595 42.6142 93.5883 42.623 93.6108 42.6406C93.6334 42.6556 93.6521 42.6782 93.6671 42.7083L95.3225 45.7305C95.3925 45.8585 95.4476 45.989 95.4876 46.122C95.5051 46.0567 95.5264 45.9915 95.5514 45.9263C95.5765 45.8585 95.6052 45.792 95.6378 45.7268L97.0229 42.7083C97.0354 42.6807 97.0529 42.6581 97.0754 42.6406C97.1004 42.623 97.1305 42.6142 97.1655 42.6142H97.4845Z" fill="white"/>
<path d="M102.451 42.6142V47.9398H102.064V45.388H98.7385V47.9398H98.3519V42.6142H98.7385V45.0982H102.064V42.6142H102.451Z" fill="white"/>
<path d="M106.879 46.0053L105.798 43.3143C105.761 43.2265 105.724 43.1211 105.689 42.9981C105.674 43.0583 105.658 43.1161 105.641 43.1713C105.623 43.2239 105.604 43.2729 105.584 43.318L104.503 46.0053H106.879ZM108.054 47.9398H107.758C107.723 47.9398 107.694 47.931 107.671 47.9135C107.649 47.8934 107.631 47.8683 107.619 47.8382L106.996 46.2913H104.387L103.764 47.8382C103.754 47.8658 103.736 47.8896 103.711 47.9097C103.686 47.9298 103.656 47.9398 103.621 47.9398H103.328L105.502 42.6142H105.881L108.054 47.9398Z" fill="white"/>
<path d="M110.305 45.4859C110.537 45.4859 110.746 45.4533 110.932 45.388C111.117 45.3228 111.273 45.2325 111.401 45.1171C111.531 45.0016 111.63 44.8662 111.697 44.7106C111.767 44.5525 111.802 44.3806 111.802 44.195C111.802 43.786 111.677 43.4711 111.427 43.2503C111.177 43.0295 110.803 42.9191 110.305 42.9191H109.318V45.4859H110.305ZM110.305 42.6142C110.928 42.6142 111.397 42.751 111.712 43.0245C112.03 43.298 112.189 43.6881 112.189 44.195C112.189 44.4283 112.145 44.6428 112.058 44.8386C111.97 45.0343 111.845 45.2036 111.682 45.3466C111.52 45.4872 111.322 45.5976 111.089 45.6778C110.857 45.7556 110.595 45.7945 110.305 45.7945H109.318V47.9398H108.931V42.6142H110.305Z" fill="white"/>
<path d="M117.989 45.2751C117.989 45.6866 117.928 46.0605 117.805 46.3967C117.683 46.7304 117.51 47.0165 117.287 47.2548C117.065 47.4907 116.797 47.6738 116.484 47.8043C116.174 47.9323 115.831 47.9963 115.456 47.9963C115.08 47.9963 114.737 47.9323 114.427 47.8043C114.117 47.6738 113.85 47.4907 113.628 47.2548C113.405 47.0165 113.232 46.7304 113.11 46.3967C112.987 46.0605 112.926 45.6866 112.926 45.2751C112.926 44.8662 112.987 44.4948 113.11 44.1611C113.232 43.8249 113.405 43.5388 113.628 43.303C113.85 43.0646 114.117 42.8802 114.427 42.7497C114.737 42.6193 115.08 42.554 115.456 42.554C115.831 42.554 116.174 42.6193 116.484 42.7497C116.797 42.8777 117.065 43.0609 117.287 43.2992C117.51 43.5376 117.683 43.8249 117.805 44.1611C117.928 44.4948 117.989 44.8662 117.989 45.2751ZM117.591 45.2751C117.591 44.9038 117.54 44.5701 117.438 44.274C117.335 43.9779 117.19 43.727 117.002 43.5213C116.814 43.3155 116.589 43.1587 116.326 43.0508C116.064 42.9404 115.773 42.8852 115.456 42.8852C115.14 42.8852 114.851 42.9404 114.589 43.0508C114.326 43.1587 114.099 43.3155 113.909 43.5213C113.721 43.727 113.575 43.9779 113.47 44.274C113.367 44.5701 113.316 44.9038 113.316 45.2751C113.316 45.649 113.367 45.984 113.47 46.28C113.575 46.5736 113.721 46.8233 113.909 47.029C114.099 47.2347 114.326 47.3916 114.589 47.4995C114.851 47.6073 115.14 47.6613 115.456 47.6613C115.773 47.6613 116.064 47.6073 116.326 47.4995C116.589 47.3916 116.814 47.2347 117.002 47.029C117.19 46.8233 117.335 46.5736 117.438 46.28C117.54 45.984 117.591 45.649 117.591 45.2751Z" fill="white"/>
<path d="M122.358 47.6312V42.9229H120.222C120.187 43.6605 120.138 44.2966 120.075 44.831C120.013 45.3655 119.939 45.8196 119.854 46.1935C119.769 46.5648 119.673 46.8659 119.565 47.0967C119.457 47.3251 119.341 47.5032 119.216 47.6312H122.358ZM123.668 47.6312V49.1517C123.668 49.1893 123.655 49.2194 123.63 49.242C123.608 49.2646 123.576 49.2759 123.536 49.2759H123.315V47.9398H118.563V49.1517C118.563 49.1893 118.55 49.2194 118.525 49.242C118.503 49.2646 118.471 49.2759 118.431 49.2759H118.21V47.6312H118.705C118.795 47.5961 118.883 47.5333 118.968 47.443C119.056 47.3527 119.138 47.2247 119.216 47.0591C119.293 46.8935 119.366 46.6853 119.434 46.4343C119.504 46.1834 119.566 45.8786 119.621 45.5198C119.676 45.161 119.724 44.742 119.764 44.2627C119.804 43.7835 119.835 43.234 119.858 42.6142H122.744V47.6312H123.668Z" fill="white"/>
<path d="M128.733 42.6142V47.9398H128.347V45.388H125.021V47.9398H124.634V42.6142H125.021V45.0982H128.347V42.6142H128.733Z" fill="white"/>
<path d="M135.02 45.2751C135.02 45.6866 134.959 46.0605 134.836 46.3967C134.713 46.7304 134.541 47.0165 134.318 47.2548C134.095 47.4907 133.827 47.6738 133.515 47.8043C133.204 47.9323 132.861 47.9963 132.486 47.9963C132.111 47.9963 131.768 47.9323 131.458 47.8043C131.147 47.6738 130.881 47.4907 130.658 47.2548C130.435 47.0165 130.263 46.7304 130.14 46.3967C130.018 46.0605 129.956 45.6866 129.956 45.2751C129.956 44.8662 130.018 44.4948 130.14 44.1611C130.263 43.8249 130.435 43.5388 130.658 43.303C130.881 43.0646 131.147 42.8802 131.458 42.7497C131.768 42.6193 132.111 42.554 132.486 42.554C132.861 42.554 133.204 42.6193 133.515 42.7497C133.827 42.8777 134.095 43.0609 134.318 43.2992C134.541 43.5376 134.713 43.8249 134.836 44.1611C134.959 44.4948 135.02 44.8662 135.02 45.2751ZM134.622 45.2751C134.622 44.9038 134.571 44.5701 134.468 44.274C134.365 43.9779 134.22 43.727 134.033 43.5213C133.845 43.3155 133.62 43.1587 133.357 43.0508C133.094 42.9404 132.804 42.8852 132.486 42.8852C132.171 42.8852 131.882 42.9404 131.619 43.0508C131.356 43.1587 131.13 43.3155 130.94 43.5213C130.752 43.727 130.606 43.9779 130.5 44.274C130.398 44.5701 130.347 44.9038 130.347 45.2751C130.347 45.649 130.398 45.984 130.5 46.28C130.606 46.5736 130.752 46.8233 130.94 47.029C131.13 47.2347 131.356 47.3916 131.619 47.4995C131.882 47.6073 132.171 47.6613 132.486 47.6613C132.804 47.6613 133.094 47.6073 133.357 47.4995C133.62 47.3916 133.845 47.2347 134.033 47.029C134.22 46.8233 134.365 46.5736 134.468 46.28C134.571 45.984 134.622 45.649 134.622 45.2751Z" fill="white"/>
<path d="M139.43 47.6199L139.423 47.9398H136.24V42.6142H139.423V42.9341H136.626V45.087H138.954V45.3993H136.626V47.6199H139.43Z" fill="white"/>
<path d="M145.493 46.0053L144.412 43.3143C144.374 43.2265 144.338 43.1211 144.303 42.9981C144.288 43.0583 144.272 43.1161 144.254 43.1713C144.237 43.2239 144.218 43.2729 144.198 43.318L143.117 46.0053H145.493ZM146.668 47.9398H146.371C146.336 47.9398 146.307 47.931 146.285 47.9135C146.262 47.8934 146.245 47.8683 146.232 47.8382L145.609 46.2913H143.001L142.377 47.8382C142.367 47.8658 142.35 47.8896 142.325 47.9097C142.3 47.9298 142.27 47.9398 142.235 47.9398H141.942L144.115 42.6142H144.495L146.668 47.9398Z" fill="white"/>
<path d="M150.653 42.9229H147.931V47.9398H147.545V42.6142H150.653V42.9229Z" fill="white"/>
<path d="M154.738 47.6199L154.731 47.9398H151.548V42.6142H154.731V42.9341H151.934V45.087H154.261V45.3993H151.934V47.6199H154.738Z" fill="white"/>
<path d="M160.001 42.6142V47.9398H159.615V45.388H156.289V47.9398H155.902V42.6142H156.289V45.0982H159.615V42.6142H160.001Z" fill="white"/>
<path d="M165.023 42.9417H163.157V47.9398H162.771V42.9417H160.894V42.6142H165.023V42.9417Z" fill="white"/>
<path d="M169.441 47.0441C169.466 47.0441 169.488 47.0528 169.505 47.0704L169.655 47.2322C169.545 47.3502 169.425 47.4568 169.295 47.5521C169.167 47.645 169.026 47.7253 168.871 47.793C168.718 47.8583 168.549 47.9084 168.364 47.9436C168.181 47.9812 167.98 48 167.76 48C167.392 48 167.054 47.936 166.746 47.8081C166.441 47.6776 166.178 47.4944 165.958 47.2586C165.738 47.0202 165.566 46.7329 165.444 46.3967C165.324 46.0605 165.264 45.6866 165.264 45.2751C165.264 44.8712 165.326 44.5023 165.451 44.1686C165.576 43.8349 165.752 43.5489 165.977 43.3105C166.202 43.0696 166.472 42.884 166.788 42.7535C167.103 42.6205 167.451 42.554 167.831 42.554C168.194 42.554 168.515 42.6105 168.796 42.7234C169.076 42.8363 169.331 42.9956 169.561 43.2014L169.445 43.3707C169.425 43.4008 169.394 43.4159 169.351 43.4159C169.321 43.4159 169.272 43.3883 169.205 43.3331C169.137 43.2779 169.043 43.2177 168.923 43.1524C168.803 43.0847 168.653 43.0232 168.473 42.968C168.295 42.9128 168.081 42.8852 167.831 42.8852C167.511 42.8852 167.217 42.9404 166.949 43.0508C166.684 43.1612 166.455 43.3193 166.262 43.525C166.072 43.7308 165.923 43.9817 165.815 44.2778C165.708 44.5738 165.654 44.9063 165.654 45.2751C165.654 45.6515 165.708 45.9877 165.815 46.2838C165.925 46.5799 166.076 46.8308 166.266 47.0365C166.456 47.2398 166.68 47.3966 166.938 47.507C167.198 47.6149 167.478 47.6688 167.778 47.6688C167.969 47.6688 168.138 47.6563 168.285 47.6312C168.435 47.6061 168.573 47.5685 168.698 47.5183C168.823 47.4681 168.94 47.4066 169.047 47.3339C169.155 47.2611 169.261 47.1758 169.366 47.0779C169.379 47.0679 169.391 47.0604 169.404 47.0553C169.416 47.0478 169.429 47.0441 169.441 47.0441Z" fill="white"/>
<path d="M174.135 42.9417H172.27V47.9398H171.883V42.9417H170.006V42.6142H174.135V42.9417Z" fill="white"/>
<path d="M176.749 47.6312C177.214 47.6312 177.566 47.5308 177.803 47.3301C178.044 47.1269 178.164 46.8421 178.164 46.4757C178.164 46.3076 178.131 46.1571 178.066 46.0241C178.004 45.8886 177.912 45.7744 177.792 45.6816C177.672 45.5863 177.524 45.5135 177.349 45.4633C177.174 45.4131 176.975 45.388 176.752 45.388H175.416V47.6312H176.749ZM175.416 42.9191V45.1058H176.565C176.81 45.1058 177.019 45.0744 177.192 45.0117C177.367 44.949 177.509 44.8662 177.62 44.7633C177.732 44.6604 177.815 44.5437 177.867 44.4133C177.92 44.2828 177.946 44.1486 177.946 44.0106C177.946 43.6517 177.832 43.3808 177.605 43.1976C177.379 43.0119 177.03 42.9191 176.557 42.9191H175.416ZM176.557 42.6142C176.86 42.6142 177.123 42.6443 177.346 42.7046C177.568 42.7648 177.752 42.8539 177.897 42.9718C178.042 43.0872 178.15 43.229 178.22 43.3971C178.29 43.5652 178.325 43.7559 178.325 43.9692C178.325 44.1097 178.3 44.2452 178.25 44.3756C178.203 44.5061 178.133 44.6265 178.04 44.7369C177.95 44.8473 177.837 44.9439 177.702 45.0267C177.569 45.107 177.417 45.1685 177.244 45.2112C177.662 45.2714 177.982 45.4106 178.205 45.6289C178.43 45.8447 178.543 46.1295 178.543 46.4833C178.543 46.7091 178.503 46.9123 178.423 47.093C178.343 47.2736 178.226 47.4267 178.074 47.5521C177.921 47.6776 177.733 47.7742 177.511 47.842C177.288 47.9072 177.035 47.9398 176.752 47.9398H175.03V42.6142H176.557Z" fill="white"/>
<path d="M184.491 45.2751C184.491 45.6866 184.43 46.0605 184.307 46.3967C184.185 46.7304 184.012 47.0165 183.789 47.2548C183.567 47.4907 183.299 47.6738 182.986 47.8043C182.676 47.9323 182.333 47.9963 181.957 47.9963C181.582 47.9963 181.239 47.9323 180.929 47.8043C180.619 47.6738 180.352 47.4907 180.129 47.2548C179.907 47.0165 179.734 46.7304 179.611 46.3967C179.489 46.0605 179.428 45.6866 179.428 45.2751C179.428 44.8662 179.489 44.4948 179.611 44.1611C179.734 43.8249 179.907 43.5388 180.129 43.303C180.352 43.0646 180.619 42.8802 180.929 42.7497C181.239 42.6193 181.582 42.554 181.957 42.554C182.333 42.554 182.676 42.6193 182.986 42.7497C183.299 42.8777 183.567 43.0609 183.789 43.2992C184.012 43.5376 184.185 43.8249 184.307 44.1611C184.43 44.4948 184.491 44.8662 184.491 45.2751ZM184.093 45.2751C184.093 44.9038 184.042 44.5701 183.939 44.274C183.837 43.9779 183.692 43.727 183.504 43.5213C183.316 43.3155 183.091 43.1587 182.828 43.0508C182.566 42.9404 182.275 42.8852 181.957 42.8852C181.642 42.8852 181.353 42.9404 181.09 43.0508C180.828 43.1587 180.601 43.3155 180.411 43.5213C180.223 43.727 180.077 43.9779 179.972 44.274C179.869 44.5701 179.818 44.9038 179.818 45.2751C179.818 45.649 179.869 45.984 179.972 46.28C180.077 46.5736 180.223 46.8233 180.411 47.029C180.601 47.2347 180.828 47.3916 181.09 47.4995C181.353 47.6073 181.642 47.6613 181.957 47.6613C182.275 47.6613 182.566 47.6073 182.828 47.4995C183.091 47.3916 183.316 47.2347 183.504 47.029C183.692 46.8233 183.837 46.5736 183.939 46.28C184.042 45.984 184.093 45.649 184.093 45.2751Z" fill="white"/>
<path d="M70.8699 54.4859C71.1026 54.4859 71.3116 54.4533 71.4968 54.3881C71.6819 54.3229 71.8383 54.2325 71.966 54.1171C72.0961 54.0017 72.1949 53.8662 72.2625 53.7106C72.3326 53.5526 72.3676 53.3807 72.3676 53.195C72.3676 52.786 72.2425 52.4711 71.9922 52.2503C71.742 52.0295 71.3679 51.9191 70.8699 51.9191H69.8827V54.4859H70.8699ZM70.8699 51.6143C71.493 51.6143 71.9622 51.751 72.2775 52.0245C72.5953 52.298 72.7542 52.6882 72.7542 53.195C72.7542 53.4284 72.7104 53.6429 72.6228 53.8386C72.5353 54.0343 72.4101 54.2037 72.2475 54.3467C72.0848 54.4872 71.8871 54.5976 71.6544 54.6779C71.4217 54.7557 71.1602 54.7946 70.8699 54.7946H69.8827V56.9398H69.4961V51.6143H70.8699Z" fill="white"/>
<path d="M77.0268 56.6199L77.0193 56.9398H73.8362V51.6143H77.0193V51.9342H74.2228V54.087H76.5501V54.3994H74.2228V56.6199H77.0268Z" fill="white"/>
<path d="M82.106 56.9398H81.7757C81.7256 56.9398 81.6843 56.9286 81.6518 56.906C81.6193 56.8834 81.5855 56.847 81.5504 56.7968L79.805 54.6365C79.77 54.5913 79.7349 54.5524 79.6999 54.5198C79.6674 54.4847 79.6298 54.4571 79.5873 54.437C79.5473 54.4144 79.501 54.3981 79.4484 54.3881C79.3959 54.3781 79.3346 54.373 79.2645 54.373H78.5776V56.9398H78.191V51.6143H78.5776V54.0719H79.1894C79.252 54.0719 79.3083 54.0682 79.3583 54.0607C79.4109 54.0531 79.4597 54.0406 79.5047 54.023C79.5523 54.0029 79.5973 53.9753 79.6399 53.9402C79.6824 53.9051 79.7262 53.8599 79.7712 53.8047L81.4378 51.7347C81.4629 51.6996 81.4929 51.6707 81.5279 51.6481C81.563 51.6256 81.603 51.6143 81.648 51.6143H81.9596L80.1503 53.8687C80.0853 53.954 80.0165 54.0218 79.9439 54.0719C79.8713 54.1221 79.7875 54.161 79.6924 54.1886C79.805 54.2137 79.8989 54.2564 79.9739 54.3166C80.0515 54.3743 80.1266 54.4546 80.1991 54.5575L82.106 56.9398Z" fill="white"/>
<path d="M84.3668 54.4859C84.5995 54.4859 84.8084 54.4533 84.9936 54.3881C85.1788 54.3229 85.3352 54.2325 85.4628 54.1171C85.5929 54.0017 85.6918 53.8662 85.7593 53.7106C85.8294 53.5526 85.8644 53.3807 85.8644 53.195C85.8644 52.786 85.7393 52.4711 85.4891 52.2503C85.2388 52.0295 84.8647 51.9191 84.3668 51.9191H83.3796V54.4859H84.3668ZM84.3668 51.6143C84.9899 51.6143 85.4591 51.751 85.7744 52.0245C86.0922 52.298 86.2511 52.6882 86.2511 53.195C86.2511 53.4284 86.2073 53.6429 86.1197 53.8386C86.0321 54.0343 85.907 54.2037 85.7443 54.3467C85.5817 54.4872 85.384 54.5976 85.1513 54.6779C84.9185 54.7557 84.657 54.7946 84.3668 54.7946H83.3796V56.9398H82.9929V51.6143H84.3668Z" fill="white"/>
<path d="M90.9891 51.6143L88.812 56.3038C88.7544 56.4292 88.6918 56.5359 88.6243 56.6237C88.5592 56.709 88.4879 56.7793 88.4103 56.8345C88.3328 56.8872 88.2477 56.9248 88.1551 56.9474C88.065 56.9725 87.9662 56.985 87.8585 56.985C87.7785 56.985 87.7084 56.9775 87.6483 56.9624C87.5883 56.9474 87.5583 56.926 87.5583 56.8984V56.6576H87.7872C87.9374 56.6576 88.0713 56.6187 88.1889 56.5409C88.3065 56.4606 88.4078 56.3289 88.4929 56.1457L88.8157 55.4494L86.6724 51.6143H87.029C87.064 51.6143 87.0928 51.6231 87.1153 51.6406C87.1379 51.6557 87.1566 51.6783 87.1716 51.7084L88.827 54.7306C88.897 54.8585 88.9521 54.989 88.9921 55.122C89.0097 55.0568 89.0309 54.9915 89.0559 54.9263C89.081 54.8585 89.1097 54.7921 89.1423 54.7268L90.5274 51.7084C90.5399 51.6808 90.5574 51.6582 90.5799 51.6406C90.6049 51.6231 90.635 51.6143 90.67 51.6143H90.9891Z" fill="white"/>
<path d="M95.3097 51.9417H93.4442V56.9398H93.0576V51.9417H91.1808V51.6143H95.3097V51.9417Z" fill="white"/>
<path d="M100.303 51.6143V56.9398H99.9162V52.5665C99.9162 52.4862 99.9174 52.4046 99.9199 52.3218C99.9249 52.2365 99.9324 52.1487 99.9425 52.0584C99.9074 52.1362 99.8724 52.2077 99.8374 52.2729C99.8023 52.3356 99.7673 52.3946 99.7323 52.4498L96.6656 56.8194C96.6455 56.852 96.6193 56.8809 96.5867 56.906C96.5567 56.9286 96.5229 56.9398 96.4854 56.9398H96.2039V51.6143H96.5905V55.9876C96.5905 56.0679 96.5892 56.1495 96.5867 56.2323C96.5842 56.3151 96.578 56.4004 96.568 56.4882C96.6005 56.4129 96.6343 56.3439 96.6693 56.2812C96.7043 56.216 96.7394 56.1558 96.7744 56.1006L99.8449 51.7347C99.8649 51.7021 99.8899 51.6745 99.9199 51.6519C99.95 51.6268 99.9837 51.6143 100.021 51.6143H100.303Z" fill="white"/>
<path d="M105.97 51.6143V56.9398H105.583V54.3881H102.258V56.9398H101.871V51.6143H102.258V54.0983H105.583V51.6143H105.97Z" fill="white"/>
<path d="M110.646 51.9229H107.925V56.9398H107.538V51.6143H110.646V51.9229Z" fill="white"/>
<path d="M115.922 54.2752C115.922 54.6867 115.861 55.0605 115.738 55.3967C115.615 55.7305 115.443 56.0165 115.22 56.2549C114.997 56.4907 114.73 56.6739 114.417 56.8044C114.106 56.9323 113.764 56.9963 113.388 56.9963C113.013 56.9963 112.67 56.9323 112.36 56.8044C112.049 56.6739 111.783 56.4907 111.56 56.2549C111.337 56.0165 111.165 55.7305 111.042 55.3967C110.92 55.0605 110.858 54.6867 110.858 54.2752C110.858 53.8662 110.92 53.4948 111.042 53.1611C111.165 52.8249 111.337 52.5389 111.56 52.303C111.783 52.0647 112.049 51.8802 112.36 51.7498C112.67 51.6193 113.013 51.5541 113.388 51.5541C113.764 51.5541 114.106 51.6193 114.417 51.7498C114.73 51.8777 114.997 52.0609 115.22 52.2993C115.443 52.5376 115.615 52.8249 115.738 53.1611C115.861 53.4948 115.922 53.8662 115.922 54.2752ZM115.524 54.2752C115.524 53.9038 115.473 53.5701 115.37 53.274C115.268 52.978 115.122 52.7271 114.935 52.5213C114.747 52.3156 114.522 52.1588 114.259 52.0509C113.996 51.9405 113.706 51.8853 113.388 51.8853C113.073 51.8853 112.784 51.9405 112.521 52.0509C112.258 52.1588 112.032 52.3156 111.842 52.5213C111.654 52.7271 111.508 52.978 111.403 53.274C111.3 53.5701 111.249 53.9038 111.249 54.2752C111.249 54.649 111.3 54.984 111.403 55.2801C111.508 55.5736 111.654 55.8233 111.842 56.029C112.032 56.2348 112.258 56.3916 112.521 56.4995C112.784 56.6074 113.073 56.6613 113.388 56.6613C113.706 56.6613 113.996 56.6074 114.259 56.4995C114.522 56.3916 114.747 56.2348 114.935 56.029C115.122 55.8233 115.268 55.5736 115.37 55.2801C115.473 54.984 115.524 54.649 115.524 54.2752Z" fill="white"/>
<path d="M118.861 56.6312C119.327 56.6312 119.678 56.5309 119.916 56.3301C120.156 56.1269 120.276 55.8421 120.276 55.4758C120.276 55.3077 120.244 55.1571 120.179 55.0241C120.116 54.8887 120.025 54.7745 119.905 54.6817C119.784 54.5863 119.637 54.5135 119.462 54.4634C119.286 54.4132 119.088 54.3881 118.865 54.3881H117.529V56.6312H118.861ZM117.529 51.9191V54.1058H118.677C118.922 54.1058 119.131 54.0745 119.304 54.0117C119.479 53.949 119.622 53.8662 119.732 53.7633C119.845 53.6604 119.927 53.5438 119.98 53.4133C120.032 53.2828 120.058 53.1486 120.058 53.0106C120.058 52.6518 119.945 52.3808 119.717 52.1976C119.492 52.012 119.143 51.9191 118.67 51.9191H117.529ZM118.67 51.6143C118.972 51.6143 119.235 51.6444 119.458 51.7046C119.681 51.7648 119.865 51.8539 120.01 51.9718C120.155 52.0872 120.262 52.229 120.332 52.3971C120.403 52.5652 120.438 52.7559 120.438 52.9692C120.438 53.1097 120.413 53.2452 120.363 53.3757C120.315 53.5061 120.245 53.6266 120.152 53.737C120.062 53.8474 119.95 53.944 119.815 54.0268C119.682 54.1071 119.529 54.1685 119.357 54.2112C119.774 54.2714 120.095 54.4107 120.317 54.629C120.543 54.8447 120.655 55.1295 120.655 55.4833C120.655 55.7091 120.615 55.9124 120.535 56.093C120.455 56.2737 120.339 56.4267 120.186 56.5522C120.033 56.6776 119.846 56.7742 119.623 56.842C119.4 56.9072 119.148 56.9398 118.865 56.9398H117.142V51.6143H118.67Z" fill="white"/>
<path d="M126.604 54.2752C126.604 54.6867 126.542 55.0605 126.42 55.3967C126.297 55.7305 126.124 56.0165 125.902 56.2549C125.679 56.4907 125.411 56.6739 125.098 56.8044C124.788 56.9323 124.445 56.9963 124.07 56.9963C123.694 56.9963 123.352 56.9323 123.041 56.8044C122.731 56.6739 122.465 56.4907 122.242 56.2549C122.019 56.0165 121.846 55.7305 121.724 55.3967C121.601 55.0605 121.54 54.6867 121.54 54.2752C121.54 53.8662 121.601 53.4948 121.724 53.1611C121.846 52.8249 122.019 52.5389 122.242 52.303C122.465 52.0647 122.731 51.8802 123.041 51.7498C123.352 51.6193 123.694 51.5541 124.07 51.5541C124.445 51.5541 124.788 51.6193 125.098 51.7498C125.411 51.8777 125.679 52.0609 125.902 52.2993C126.124 52.5376 126.297 52.8249 126.42 53.1611C126.542 53.4948 126.604 53.8662 126.604 54.2752ZM126.206 54.2752C126.206 53.9038 126.154 53.5701 126.052 53.274C125.949 52.978 125.804 52.7271 125.616 52.5213C125.429 52.3156 125.203 52.1588 124.941 52.0509C124.678 51.9405 124.388 51.8853 124.07 51.8853C123.755 51.8853 123.466 51.9405 123.203 52.0509C122.94 52.1588 122.714 52.3156 122.523 52.5213C122.336 52.7271 122.189 52.978 122.084 53.274C121.982 53.5701 121.93 53.9038 121.93 54.2752C121.93 54.649 121.982 54.984 122.084 55.2801C122.189 55.5736 122.336 55.8233 122.523 56.029C122.714 56.2348 122.94 56.3916 123.203 56.4995C123.466 56.6074 123.755 56.6613 124.07 56.6613C124.388 56.6613 124.678 56.6074 124.941 56.4995C125.203 56.3916 125.429 56.2348 125.616 56.029C125.804 55.8233 125.949 55.5736 126.052 55.2801C126.154 54.984 126.206 54.649 126.206 54.2752Z" fill="white"/>
<path d="M130.932 51.9229H128.21V56.9398H127.824V51.6143H130.932V51.9229Z" fill="white"/>
<path d="M136.207 54.2752C136.207 54.6867 136.146 55.0605 136.024 55.3967C135.901 55.7305 135.728 56.0165 135.506 56.2549C135.283 56.4907 135.015 56.6739 134.702 56.8044C134.392 56.9323 134.049 56.9963 133.674 56.9963C133.298 56.9963 132.956 56.9323 132.645 56.8044C132.335 56.6739 132.069 56.4907 131.846 56.2549C131.623 56.0165 131.45 55.7305 131.328 55.3967C131.205 55.0605 131.144 54.6867 131.144 54.2752C131.144 53.8662 131.205 53.4948 131.328 53.1611C131.45 52.8249 131.623 52.5389 131.846 52.303C132.069 52.0647 132.335 51.8802 132.645 51.7498C132.956 51.6193 133.298 51.5541 133.674 51.5541C134.049 51.5541 134.392 51.6193 134.702 51.7498C135.015 51.8777 135.283 52.0609 135.506 52.2993C135.728 52.5376 135.901 52.8249 136.024 53.1611C136.146 53.4948 136.207 53.8662 136.207 54.2752ZM135.81 54.2752C135.81 53.9038 135.758 53.5701 135.656 53.274C135.553 52.978 135.408 52.7271 135.22 52.5213C135.033 52.3156 134.807 52.1588 134.545 52.0509C134.282 51.9405 133.992 51.8853 133.674 51.8853C133.359 51.8853 133.069 51.9405 132.807 52.0509C132.544 52.1588 132.318 52.3156 132.127 52.5213C131.94 52.7271 131.793 52.978 131.688 53.274C131.586 53.5701 131.534 53.9038 131.534 54.2752C131.534 54.649 131.586 54.984 131.688 55.2801C131.793 55.5736 131.94 55.8233 132.127 56.029C132.318 56.2348 132.544 56.3916 132.807 56.4995C133.069 56.6074 133.359 56.6613 133.674 56.6613C133.992 56.6613 134.282 56.6074 134.545 56.4995C134.807 56.3916 135.033 56.2348 135.22 56.029C135.408 55.8233 135.553 55.5736 135.656 55.2801C135.758 54.984 135.81 54.649 135.81 54.2752Z" fill="white"/>
<path d="M143.298 56.0441C143.323 56.0441 143.344 56.0529 143.362 56.0704L143.512 56.2323C143.402 56.3502 143.282 56.4568 143.152 56.5522C143.024 56.645 142.883 56.7253 142.728 56.7931C142.575 56.8583 142.406 56.9085 142.221 56.9436C142.038 56.9812 141.837 57.0001 141.616 57.0001C141.249 57.0001 140.911 56.9361 140.603 56.8081C140.298 56.6776 140.035 56.4945 139.815 56.2586C139.594 56.0203 139.423 55.733 139.3 55.3967C139.18 55.0605 139.12 54.6867 139.12 54.2752C139.12 53.8712 139.183 53.5024 139.308 53.1687C139.433 52.835 139.608 52.5489 139.833 52.3106C140.059 52.0697 140.329 51.884 140.644 51.7535C140.96 51.6205 141.307 51.5541 141.688 51.5541C142.051 51.5541 142.372 51.6105 142.652 51.7234C142.933 51.8363 143.188 51.9957 143.418 52.2014L143.302 52.3708C143.282 52.4009 143.251 52.4159 143.208 52.4159C143.178 52.4159 143.129 52.3883 143.062 52.3331C142.994 52.2779 142.9 52.2177 142.78 52.1525C142.66 52.0847 142.51 52.0233 142.33 51.9681C142.152 51.9129 141.938 51.8853 141.688 51.8853C141.367 51.8853 141.073 51.9405 140.806 52.0509C140.54 52.1613 140.311 52.3193 140.119 52.5251C139.929 52.7308 139.78 52.9817 139.672 53.2778C139.564 53.5739 139.511 53.9063 139.511 54.2752C139.511 54.6515 139.564 54.9878 139.672 55.2838C139.782 55.5799 139.932 55.8308 140.122 56.0366C140.313 56.2398 140.537 56.3966 140.794 56.507C141.055 56.6149 141.335 56.6689 141.635 56.6689C141.825 56.6689 141.994 56.6563 142.142 56.6312C142.292 56.6061 142.43 56.5685 142.555 56.5183C142.68 56.4681 142.796 56.4067 142.904 56.3339C143.012 56.2611 143.118 56.1758 143.223 56.078C143.235 56.0679 143.248 56.0604 143.261 56.0554C143.273 56.0479 143.286 56.0441 143.298 56.0441Z" fill="white"/>
<path d="M147.729 56.6199L147.722 56.9398H144.539V51.6143H147.722V51.9342H144.925V54.087H147.253V54.3994H144.925V56.6199H147.729Z" fill="white"/>
<path d="M150.267 54.4859C150.5 54.4859 150.709 54.4533 150.894 54.3881C151.079 54.3229 151.236 54.2325 151.363 54.1171C151.494 54.0017 151.592 53.8662 151.66 53.7106C151.73 53.5526 151.765 53.3807 151.765 53.195C151.765 52.786 151.64 52.4711 151.39 52.2503C151.14 52.0295 150.765 51.9191 150.267 51.9191H149.28V54.4859H150.267ZM150.267 51.6143C150.891 51.6143 151.36 51.751 151.675 52.0245C151.993 52.298 152.152 52.6882 152.152 53.195C152.152 53.4284 152.108 53.6429 152.02 53.8386C151.933 54.0343 151.808 54.2037 151.645 54.3467C151.482 54.4872 151.285 54.5976 151.052 54.6779C150.819 54.7557 150.558 54.7946 150.267 54.7946H149.28V56.9398H148.894V51.6143H150.267Z" fill="white"/>
<path d="M154.953 56.6312C155.418 56.6312 155.77 56.5309 156.008 56.3301C156.248 56.1269 156.368 55.8421 156.368 55.4758C156.368 55.3077 156.335 55.1571 156.27 55.0241C156.208 54.8887 156.116 54.7745 155.996 54.6817C155.876 54.5863 155.729 54.5135 155.553 54.4634C155.378 54.4132 155.179 54.3881 154.957 54.3881H153.62V56.6312H154.953ZM153.62 51.9191V54.1058H154.769C155.014 54.1058 155.223 54.0745 155.396 54.0117C155.571 53.949 155.714 53.8662 155.824 53.7633C155.936 53.6604 156.019 53.5438 156.071 53.4133C156.124 53.2828 156.15 53.1486 156.15 53.0106C156.15 52.6518 156.036 52.3808 155.809 52.1976C155.583 52.012 155.234 51.9191 154.761 51.9191H153.62ZM154.761 51.6143C155.064 51.6143 155.327 51.6444 155.55 51.7046C155.772 51.7648 155.956 51.8539 156.101 51.9718C156.247 52.0872 156.354 52.229 156.424 52.3971C156.494 52.5652 156.529 52.7559 156.529 52.9692C156.529 53.1097 156.504 53.2452 156.454 53.3757C156.407 53.5061 156.337 53.6266 156.244 53.737C156.154 53.8474 156.041 53.944 155.906 54.0268C155.774 54.1071 155.621 54.1685 155.448 54.2112C155.866 54.2714 156.187 54.4107 156.409 54.629C156.634 54.8447 156.747 55.1295 156.747 55.4833C156.747 55.7091 156.707 55.9124 156.627 56.093C156.547 56.2737 156.431 56.4267 156.278 56.5522C156.125 56.6776 155.938 56.7742 155.715 56.842C155.492 56.9072 155.239 56.9398 154.957 56.9398H153.234V51.6143H154.761Z" fill="white"/>
<path d="M162.076 51.6143V56.9398H161.689V52.5665C161.689 52.4862 161.691 52.4046 161.693 52.3218C161.698 52.2365 161.706 52.1487 161.716 52.0584C161.681 52.1362 161.646 52.2077 161.611 52.2729C161.575 52.3356 161.54 52.3946 161.505 52.4498L158.439 56.8194C158.419 56.852 158.392 56.8809 158.36 56.906C158.33 56.9286 158.296 56.9398 158.259 56.9398H157.977V51.6143H158.364V55.9876C158.364 56.0679 158.362 56.1495 158.36 56.2323C158.357 56.3151 158.351 56.4004 158.341 56.4882C158.374 56.4129 158.407 56.3439 158.442 56.2812C158.478 56.216 158.513 56.1558 158.548 56.1006L161.618 51.7347C161.638 51.7021 161.663 51.6745 161.693 51.6519C161.723 51.6268 161.757 51.6143 161.794 51.6143H162.076Z" fill="white"/>
<path d="M167.477 56.0441C167.502 56.0441 167.523 56.0529 167.54 56.0704L167.69 56.2323C167.58 56.3502 167.46 56.4568 167.33 56.5522C167.203 56.645 167.061 56.7253 166.906 56.7931C166.753 56.8583 166.584 56.9085 166.399 56.9436C166.217 56.9812 166.015 57.0001 165.795 57.0001C165.427 57.0001 165.089 56.9361 164.781 56.8081C164.476 56.6776 164.213 56.4945 163.993 56.2586C163.773 56.0203 163.602 55.733 163.479 55.3967C163.359 55.0605 163.299 54.6867 163.299 54.2752C163.299 53.8712 163.361 53.5024 163.486 53.1687C163.612 52.835 163.787 52.5489 164.012 52.3106C164.237 52.0697 164.507 51.884 164.823 51.7535C165.138 51.6205 165.486 51.5541 165.866 51.5541C166.229 51.5541 166.551 51.6105 166.831 51.7234C167.111 51.8363 167.366 51.9957 167.597 52.2014L167.48 52.3708C167.46 52.4009 167.429 52.4159 167.386 52.4159C167.356 52.4159 167.308 52.3883 167.24 52.3331C167.172 52.2779 167.079 52.2177 166.959 52.1525C166.838 52.0847 166.688 52.0233 166.508 51.9681C166.33 51.9129 166.116 51.8853 165.866 51.8853C165.546 51.8853 165.252 51.9405 164.984 52.0509C164.719 52.1613 164.49 52.3193 164.297 52.5251C164.107 52.7308 163.958 52.9817 163.851 53.2778C163.743 53.5739 163.689 53.9063 163.689 54.2752C163.689 54.6515 163.743 54.9878 163.851 55.2838C163.961 55.5799 164.111 55.8308 164.301 56.0366C164.491 56.2398 164.715 56.3966 164.973 56.507C165.233 56.6149 165.513 56.6689 165.814 56.6689C166.004 56.6689 166.173 56.6563 166.32 56.6312C166.471 56.6061 166.608 56.5685 166.733 56.5183C166.858 56.4681 166.975 56.4067 167.082 56.3339C167.19 56.2611 167.296 56.1758 167.401 56.078C167.414 56.0679 167.426 56.0604 167.439 56.0554C167.452 56.0479 167.464 56.0441 167.477 56.0441Z" fill="white"/>
<path d="M171.578 55.0053L170.497 52.3143C170.459 52.2265 170.423 52.1211 170.388 51.9982C170.373 52.0584 170.356 52.1161 170.339 52.1713C170.321 52.224 170.303 52.2729 170.283 52.3181L169.202 55.0053H171.578ZM172.752 56.9398H172.456C172.421 56.9398 172.392 56.9311 172.37 56.9135C172.347 56.8934 172.33 56.8683 172.317 56.8382L171.694 55.2914H169.085L168.462 56.8382C168.452 56.8658 168.435 56.8897 168.41 56.9097C168.385 56.9298 168.354 56.9398 168.319 56.9398H168.027L170.2 51.6143H170.579L172.752 56.9398Z" fill="white"/>
</g>
</g>
</svg>
