<svg width="0" height="0" class="hidden">
  <symbol fill="none" xmlns="http://www.w3.org/2000/svg" viewBox="0 0 17 18" id="ic_arr_hor">
    <path d="M15.5 17L2.5 9L15.5 1" stroke="currentColor" stroke-width="2" stroke-linecap="round"></path>
  </symbol>
  <symbol fill="none" xmlns="http://www.w3.org/2000/svg" viewBox="0 0 12 9" id="ic_arr_ver">
    <path d="M6 9L0.803847 -9.78799e-07L11.1962 -7.02746e-08L6 9Z" fill="currentColor"></path>
  </symbol>
  <symbol fill="none" xmlns="http://www.w3.org/2000/svg" viewBox="0 0 10 7" id="ic_arr_ver2">
    <path d="M9.06531 0.543322L9.86031 1.42749L5.52756 6.24332C5.45814 6.32095 5.37558 6.38256 5.28464 6.4246C5.1937 6.46664 5.09618 6.48828 4.99769 6.48828C4.89919 6.48828 4.80167 6.46664 4.71073 6.4246C4.6198 6.38256 4.53724 6.32095 4.46781 6.24332L0.132813 1.42749L0.927813 0.544155L4.99656 5.06416L9.06531 0.543322Z" fill="currentColor"></path>
  </symbol>
  <symbol fill="none" xmlns="http://www.w3.org/2000/svg" viewBox="0 0 13 15" id="ic_arrow_ver">
    <path d="M7.29403 0.909091V11.4176L11.3338 7.36506L12.331 8.34943L6.59091 14.0767L0.863636 8.34943L1.83523 7.36506L5.88778 11.4176V0.909091H7.29403Z" fill="currentColor"></path>
  </symbol>
  <symbol fill="none" xmlns="http://www.w3.org/2000/svg" viewBox="0 0 20 20" id="ic_check">
    <path d="M6.45766 17.2189C6.17657 17.219 5.89821 17.1637 5.63854 17.0561C5.37886 16.9484 5.14297 16.7906 4.94438 16.5917L0.369217 12.0182C-0.123072 11.5258 -0.123072 10.7275 0.369217 10.2351C0.861665 9.7428 1.65992 9.7428 2.15237 10.2351L6.45766 14.5404L17.8476 3.15041C18.3401 2.65812 19.1383 2.65812 19.6308 3.15041C20.1231 3.64285 20.1231 4.44111 19.6308 4.93356L7.97094 16.5917C7.77234 16.7906 7.53645 16.9484 7.27678 17.0561C7.01711 17.1637 6.73875 17.219 6.45766 17.2189Z" fill="currentColor"></path>
  </symbol>
  <symbol fill="none" xmlns="http://www.w3.org/2000/svg" viewBox="0 0 12 10" id="ic_check2">
    <path d="M1 4.11111L5.58333 9L11 1" stroke="currentColor"></path>
  </symbol>
  <symbol fill="none" xmlns="http://www.w3.org/2000/svg" viewBox="0 0 20 20" id="ic_close">
    <path d="M1 1L19 19" stroke="currentColor"></path>
    <path d="M19 1L1 19" stroke="currentColor"></path>
  </symbol>
  <symbol fill="none" xmlns="http://www.w3.org/2000/svg" viewBox="0 0 50 50" id="ic_email">
    <path d="M39.5833 2.08331H10.4167C7.65501 2.08662 5.00741 3.18515 3.05462 5.13794C1.10184 7.09072 0.00330804 9.73832 0 12.5L0 37.5C0.00330804 40.2616 1.10184 42.9092 3.05462 44.862C5.00741 46.8148 7.65501 47.9133 10.4167 47.9166H39.5833C42.345 47.9133 44.9926 46.8148 46.9454 44.862C48.8982 42.9092 49.9967 40.2616 50 37.5V12.5C49.9967 9.73832 48.8982 7.09072 46.9454 5.13794C44.9926 3.18515 42.345 2.08662 39.5833 2.08331ZM10.4167 6.24998H39.5833C40.8308 6.25243 42.049 6.62814 43.0812 7.32874C44.1133 8.02934 44.9122 9.02279 45.375 10.1812L29.4208 26.1375C28.2467 27.3069 26.6571 27.9635 25 27.9635C23.3429 27.9635 21.7533 27.3069 20.5792 26.1375L4.625 10.1812C5.08781 9.02279 5.88669 8.02934 6.91885 7.32874C7.951 6.62814 9.1692 6.25243 10.4167 6.24998ZM39.5833 43.75H10.4167C8.75906 43.75 7.16935 43.0915 5.99725 41.9194C4.82515 40.7473 4.16667 39.1576 4.16667 37.5V15.625L17.6333 29.0833C19.5888 31.0338 22.238 32.1292 25 32.1292C27.762 32.1292 30.4112 31.0338 32.3667 29.0833L45.8333 15.625V37.5C45.8333 39.1576 45.1749 40.7473 44.0028 41.9194C42.8306 43.0915 41.2409 43.75 39.5833 43.75Z" fill="currentColor"></path>
  </symbol>
  <symbol fill="none" xmlns="http://www.w3.org/2000/svg" viewBox="0 0 28 24" id="ic_favorite">
    <path fill-rule="evenodd" clip-rule="evenodd" d="M26.234 3.8702C25.7439 3.0015 25.0808 2.23611 24.2831 1.61859C23.4855 1.00107 22.5692 0.543762 21.5877 0.273284C19.2436 -0.367751 16.9955 0.124024 15.0867 1.69519C14.5568 2.13593 14.0775 2.63092 13.657 3.17156C13.2361 2.63084 12.7562 2.13585 12.2257 1.69519C10.3169 0.124024 8.06883 -0.367751 5.72468 0.273284C4.7435 0.543948 3.82757 1.00134 3.0302 1.61886C2.23282 2.23637 1.56993 3.00166 1.08009 3.8702C-0.233068 6.21123 -0.350141 8.712 0.731566 11.3029C1.56025 13.2883 3.07518 15.2805 5.23373 17.2246C6.10369 18.0077 7.01885 18.7557 7.90424 19.4794L7.92316 19.4949L7.93773 19.5064C9.18995 20.5289 10.4546 21.5828 11.6772 22.6017L11.6803 22.6042L13.131 23.8114C13.2776 23.9331 13.4641 24 13.657 24C13.8499 24 14.0365 23.9331 14.183 23.8114C14.6654 23.4106 15.1473 23.0091 15.6289 22.6069L15.6344 22.6023C16.8579 21.583 18.1233 20.5288 19.3763 19.5054L19.3909 19.4939L19.4098 19.4784C20.2952 18.7547 21.2103 18.0067 22.0803 17.2235C24.2383 15.2795 25.7538 13.2872 26.5825 11.3018C27.6642 8.712 27.5471 6.21123 26.234 3.8702ZM17.8677 17.5452C18.6443 16.9168 19.4479 16.2665 20.2006 15.5975C22.9786 13.1245 25.8275 9.36162 23.6261 5.4803C23.281 4.8754 22.8139 4.34239 22.2522 3.91228C21.6904 3.48217 21.0451 3.16355 20.3539 2.97496C18.7349 2.53866 17.2383 2.85744 15.9057 3.92667C15.2612 4.45019 14.7173 5.07814 14.2988 5.78196C14.2378 5.89481 14.1456 5.98941 14.0324 6.05544C13.9192 6.12147 13.7893 6.15639 13.6568 6.15639C13.5243 6.15639 13.3944 6.12147 13.2812 6.05544C13.168 5.98941 13.0759 5.89481 13.0149 5.78196C12.5958 5.07901 12.052 4.45175 11.4079 3.92852C10.4615 3.16881 9.43164 2.78711 8.33383 2.78711C7.86906 2.78961 7.40687 2.85344 6.96023 2.97681C6.26909 3.16524 5.62389 3.48365 5.06213 3.91351C4.50038 4.34337 4.03328 4.87612 3.688 5.48077C1.48658 9.36162 4.3355 13.1245 7.11596 15.597C7.87291 16.2711 8.68337 16.9258 9.46684 17.5583L9.47937 17.5684C10.6047 18.4771 11.7386 19.4108 12.835 20.3139L13.6595 20.9926L14.4791 20.3176L14.4845 20.3132C15.5806 19.4105 16.7142 18.477 17.8391 17.5684L17.8516 17.5583L17.8677 17.5452Z" fill="currentColor"></path>
  </symbol>
  <symbol fill="none" xmlns="http://www.w3.org/2000/svg" viewBox="0 0 50 50" id="ic_phone">
    <path d="M27.084 2.0833C27.084 1.53077 27.3034 1.00087 27.6942 0.610164C28.0849 0.219464 28.6148 -2.99173e-05 29.1673 -2.99173e-05C34.6908 0.00603591 39.9863 2.20292 43.892 6.10861C47.7977 10.0143 49.9946 15.3098 50.0006 20.8333C50.0006 21.3858 49.7811 21.9157 49.3904 22.3064C48.9997 22.6971 48.4698 22.9166 47.9173 22.9166C47.3648 22.9166 46.8349 22.6971 46.4441 22.3064C46.0534 21.9157 45.834 21.3858 45.834 20.8333C45.829 16.4146 44.0714 12.1782 40.9469 9.05367C37.8224 5.92914 33.586 4.1716 29.1673 4.16664C28.6148 4.16664 28.0849 3.94714 27.6942 3.55644C27.3034 3.16574 27.084 2.63584 27.084 2.0833ZM29.1673 12.5C31.3774 12.5 33.497 13.3779 35.0598 14.9407C36.6226 16.5036 37.5006 18.6232 37.5006 20.8333C37.5006 21.3858 37.7201 21.9157 38.1108 22.3064C38.5015 22.6971 39.0314 22.9166 39.584 22.9166C40.1365 22.9166 40.6664 22.6971 41.0571 22.3064C41.4478 21.9157 41.6673 21.3858 41.6673 20.8333C41.664 17.5191 40.346 14.3416 38.0025 11.9981C35.659 9.65464 32.4815 8.33661 29.1673 8.3333C28.6148 8.3333 28.0849 8.5528 27.6942 8.9435C27.3034 9.3342 27.084 9.8641 27.084 10.4166C27.084 10.9692 27.3034 11.4991 27.6942 11.8898C28.0849 12.2805 28.6148 12.5 29.1673 12.5ZM48.111 34.8729C49.3184 36.0835 49.9963 37.7235 49.9963 39.4333C49.9963 41.1431 49.3184 42.7831 48.111 43.9937L46.2152 46.1791C29.1527 62.5146 -12.3681 21.0041 3.7152 3.88747L6.11104 1.80414C7.32306 0.630548 8.9484 -0.0186777 10.6354 -0.00308233C12.3224 0.012513 13.9355 0.691675 15.1256 1.88747C15.1902 1.95205 19.0506 6.96664 19.0506 6.96664C20.1961 8.17003 20.8338 9.76857 20.831 11.43C20.8283 13.0914 20.1854 14.6878 19.036 15.8875L16.6235 18.9208C17.9586 22.1648 19.9216 25.113 22.3996 27.596C24.8776 30.079 27.8218 32.0479 31.0631 33.3896L34.1152 30.9625C35.315 29.814 36.9112 29.1718 38.5721 29.1695C40.233 29.1672 41.8309 29.8048 43.034 30.95C43.034 30.95 48.0465 34.8083 48.111 34.8729ZM45.2444 37.9021C45.2444 37.9021 40.259 34.0666 40.1944 34.0021C39.7652 33.5765 39.1852 33.3377 38.5808 33.3377C37.9764 33.3377 37.3965 33.5765 36.9673 34.0021C36.911 34.0604 32.709 37.4083 32.709 37.4083C32.4258 37.6337 32.0888 37.7814 31.7311 37.837C31.3735 37.8925 31.0076 37.8539 30.6694 37.725C26.4703 36.1616 22.6563 33.714 19.4857 30.5481C16.3151 27.3821 13.8619 23.5717 12.2923 19.375C12.1531 19.0322 12.1077 18.6585 12.1608 18.2923C12.2139 17.9262 12.3636 17.5808 12.5944 17.2916C12.5944 17.2916 15.9423 13.0875 15.9985 13.0333C16.4241 12.6041 16.6629 12.0242 16.6629 11.4198C16.6629 10.8154 16.4241 10.2354 15.9985 9.80622C15.934 9.74372 12.0985 4.75414 12.0985 4.75414C11.6629 4.36353 11.0944 4.15434 10.5095 4.16944C9.92456 4.18455 9.36759 4.42281 8.95271 4.83539L6.55687 6.91872C-5.1973 21.0521 30.784 55.0375 43.1694 43.3333L45.0673 41.1458C45.512 40.7338 45.7792 40.1651 45.8122 39.5598C45.8453 38.9544 45.6416 38.36 45.2444 37.9021Z" fill="currentColor"></path>
  </symbol>
  <symbol fill="none" xmlns="http://www.w3.org/2000/svg" viewBox="0 0 24 24" id="ic_print">
    <path d="M15.2501 18H8.75024C8.33624 18 8.00024 17.664 8.00024 17.25C8.00024 16.836 8.33624 16.5 8.75024 16.5H15.2501C15.6641 16.5 16.0001 16.836 16.0001 17.25C16.0001 17.664 15.6641 18 15.2501 18ZM15.2501 21H8.75024C8.33624 21 8.00024 20.664 8.00024 20.25C8.00024 19.836 8.33624 19.5 8.75024 19.5H15.2501C15.6641 19.5 16.0001 19.836 16.0001 20.25C16.0001 20.664 15.6641 21 15.2501 21Z" fill="currentColor"></path>
    <path d="M21.2499 6H20.0001V3C20.0001 1.34602 18.654 0 17.0001 0H6.99994C5.34595 0 3.99994 1.34602 3.99994 3V6H2.75006C1.23103 6 0 7.23103 0 8.75006V15.2499C0 16.769 1.23103 18 2.75006 18H3.99994V21C3.99994 22.6569 5.343 24 6.99994 24H17.0001C18.657 24 20.0001 22.6569 20.0001 21V18H21.2499C22.769 18 24 16.769 24 15.2499V8.75006C24 7.23103 22.769 6 21.2499 6ZM6 3C6 2.44903 6.44808 2.00006 6.99994 2.00006H17.0001C17.5519 2.00006 18 2.44903 18 3V6H6V3ZM18 21C18 21.551 17.5519 21.9999 17.0001 21.9999H6.99994C6.44808 21.9999 6 21.551 6 21V15H18V21Z" fill="currentColor"></path>
  </symbol>
  <symbol fill="none" xmlns="http://www.w3.org/2000/svg" viewBox="0 0 24 24" id="ic_share">
    <path d="M23.7893 6.97895L17.2895 0.229188C17.1857 0.121758 17.0523 0.0477185 16.9063 0.0165398C16.7602 -0.0146389 16.6082 -0.00153938 16.4696 0.0541627C16.3308 0.110161 16.212 0.206325 16.1282 0.330325C16.0445 0.454326 15.9997 0.600511 15.9996 0.750138V4.00015H15.7497C10.3738 4.00015 6 8.37399 6 13.7498V15.2498C6 15.5976 6.24496 15.8877 6.5839 15.9668C6.63902 15.9807 6.69396 15.9867 6.7489 15.9867C7.03196 15.9867 7.30294 15.8207 7.43386 15.5597C8.83987 12.7468 11.6667 10.9998 14.8116 10.9998H15.9996V14.2497C15.9995 14.3992 16.0443 14.5453 16.1281 14.6692C16.2118 14.7931 16.3308 14.8891 16.4696 14.9447C16.7506 15.0597 17.0775 14.9897 17.2895 14.7697L23.7893 8.01991C24.0693 7.72897 24.0693 7.27102 23.7893 6.979V6.97895Z" fill="currentColor"></path>
    <path d="M20.9993 24.0002H2.99989C1.34597 24.0002 0 22.6544 0 21.0003V7.00087C0 5.34694 1.34597 4.00098 2.99989 4.00098H5.99979C6.55276 4.00098 6.99969 4.44791 6.99969 5.00088C6.99969 5.55384 6.55276 6.00078 5.99979 6.00078H2.99989C2.44787 6.00078 1.9998 6.44884 1.9998 7.00087V21.0003C1.9998 21.5523 2.44787 22.0003 2.99989 22.0003H20.9993C21.5511 22.0003 21.9992 21.5523 21.9992 21.0003V13.0007C21.9992 12.4477 22.4461 12.0006 22.9991 12.0006C23.5522 12.0006 23.9992 12.4477 23.9992 13.0007V21.0003C23.9992 22.6544 22.6532 24.0002 20.9993 24.0002Z" fill="currentColor"></path>
  </symbol>
  <symbol fill="none" xmlns="http://www.w3.org/2000/svg" viewBox="0 0 16 14" id="ic_sort">
    <line y1="1.5" x2="16" y2="1.5" stroke="currentColor" stroke-width="2"></line>
    <line y1="7" x2="8" y2="7" stroke="currentColor" stroke-width="2"></line>
    <line y1="12.5" x2="4" y2="12.5" stroke="currentColor" stroke-width="2"></line>
  </symbol>
</svg>